<svg class="img-fluid" id="outputsvg" xmlns="http://www.w3.org/2000/svg" style="transform: matrix(1, 0, 0, 1, 0, 0); transform-origin: 50% 50% 0px; cursor: move; max-height: none; transition: none 0s ease 0s;" width="2105" height="3045" viewBox="0 0 21050 30450"><g id="loB6Y2YTCPMuJ8wMGG0oqy" fill="rgb(36,28,27)" style="transform: none;"><g><path id="p1BQzyAWkI" d="M3330 25660 c0 -20 7 -20 7200 -20 6148 0 7200 2 7200 14 0 8 -7 17 -16 20 -9 3 -3249 6 -7200 6 -7177 0 -7184 0 -7184 -20z"></path><path id="ppfndUcz1" d="M10180 25205 c-86 -27 -186 -74 -229 -110 -70 -57 -104 -92 -138 -139 -21 -28 -40 -53 -43 -56 -3 -3 -13 -23 -24 -45 -12 -25 -20 -34 -23 -25 -18 60 -81 148 -162 223 -34 31 -66 57 -71 57 -5 0 -16 7 -25 16 -20 20 -131 62 -215 81 -89 20 -299 12 -395 -16 -136 -39 -226 -92 -322 -191 -72 -73 -83 -87 -83 -100 0 -5 -3 -10 -7 -10 -5 0 -21 -29 -38 -65 l-30 -65 -1793 0 c-1754 0 -1796 0 -1892 -20 -108 -22 -259 -72 -360 -119 -81 -37 -164 -84 -168 -93 -2 -5 -10 -8 -18 -8 -8 0 -14 -3 -14 -7 0 -5 -17 -19 -38 -33 -37 -24 -206 -191 -230 -226 -89 -135 -113 -182 -151 -299 -50 -151 -65 -347 -40 -522 13 -96 71 -272 110 -336 16 -27 29 -53 29 -58 0 -5 5 -9 10 -9 6 0 10 -6 10 -14 0 -8 3 -16 8 -18 4 -1 27 -29 50 -60 24 -32 78 -89 120 -128 89 -80 83 -76 142 -115 76 -50 103 -64 225 -119 63 -29 184 -65 282 -85 101 -21 117 -21 1907 -21 l1805 0 6 -22 c12 -39 68 -153 77 -156 4 -2 8 -8 8 -14 0 -5 6 -15 13 -23 100 -108 139 -140 232 -188 114 -59 177 -71 350 -71 128 0 171 3 215 18 70 23 194 78 198 88 2 5 8 8 13 8 6 0 15 5 22 10 99 86 152 149 192 230 l28 55 21 -45 c12 -25 23 -47 26 -50 3 -3 24 -30 47 -60 23 -31 59 -69 79 -85 20 -17 42 -36 49 -42 8 -7 18 -13 24 -13 6 0 11 -4 11 -10 0 -5 4 -10 9 -10 5 0 42 -15 83 -34 142 -66 374 -79 548 -30 93 26 214 96 279 162 66 67 101 109 101 121 0 4 8 19 19 32 10 13 21 33 23 44 3 16 10 9 29 -30 13 -27 27 -51 32 -53 4 -2 7 -8 7 -13 0 -20 85 -107 147 -151 26 -18 50 -36 53 -39 22 -27 192 -79 295 -91 110 -12 270 3 360 34 46 16 160 72 163 81 2 4 8 7 14 7 5 0 16 6 23 13 73 66 126 123 151 159 16 24 34 49 41 55 6 7 17 30 23 50 7 21 17 44 23 51 7 9 382 12 1811 12 1709 1 1805 2 1886 19 111 24 195 48 239 68 60 27 224 108 236 116 5 4 44 31 85 61 67 48 169 144 230 216 91 109 179 302 205 454 36 210 11 468 -61 633 -8 17 -14 35 -14 41 0 5 -32 58 -72 118 -93 140 -211 260 -328 334 -30 19 -57 37 -60 40 -14 14 -167 82 -259 115 -226 81 -64 75 -2093 75 -1374 0 -1808 3 -1808 12 0 16 -63 152 -72 156 -5 2 -8 8 -8 13 0 23 -137 159 -160 159 -6 0 -10 5 -10 10 0 6 -6 10 -14 10 -7 0 -19 6 -25 14 -7 8 -56 29 -109 47 -95 33 -100 33 -272 33 -165 0 -180 -1 -260 -28 -103 -34 -195 -91 -275 -171 -59 -58 -80 -87 -124 -170 -12 -22 -21 -32 -21 -23 0 18 -62 127 -95 168 -40 48 -120 120 -135 120 -5 0 -10 3 -12 8 -4 10 -124 67 -183 87 -35 12 -95 18 -205 21 -144 4 -161 3 -240 -21z m332 -79 c186 -40 356 -171 435 -336 29 -61 63 -173 63 -208 0 -21 4 -23 36 -20 37 3 37 3 60 81 72 242 242 407 486 469 209 52 449 -24 598 -190 50 -55 130 -201 130 -235 0 -15 133 -17 1843 -19 l1842 -3 95 -27 c52 -14 129 -39 170 -53 352 -128 613 -393 716 -730 25 -81 28 -105 28 -240 0 -134 -3 -159 -27 -238 -109 -355 -387 -622 -783 -751 -218 -71 -62 -66 -2068 -66 l-1812 0 -24 -57 c-35 -86 -84 -156 -161 -227 -254 -235 -632 -234 -869 4 -43 43 -89 101 -107 135 -32 61 -73 191 -73 233 0 21 -4 23 -37 20 l-36 -3 -19 -78 c-52 -221 -218 -402 -433 -470 -108 -34 -262 -31 -372 6 -134 46 -251 135 -329 252 -41 60 -89 181 -99 248 -7 48 -8 48 -43 45 l-36 -3 -17 -77 c-28 -129 -77 -219 -172 -313 -65 -66 -99 -90 -167 -123 -192 -92 -364 -91 -560 5 -132 65 -262 218 -310 365 l-11 38 -1847 3 -1847 2 -100 28 c-128 36 -281 97 -359 144 -283 169 -467 417 -527 708 -61 292 46 610 283 847 159 160 361 270 628 346 l95 26 1840 3 1840 3 18 45 c48 115 165 249 279 318 121 73 285 108 412 87 259 -41 457 -228 505 -476 l16 -85 33 3 c33 3 34 5 63 93 48 151 137 277 254 360 75 54 131 79 227 105 88 23 160 24 250 6z"></path><path id="p1GnyIoWKQ" d="M8931 25049 c-176 -34 -328 -189 -411 -418 l-30 -82 0 -938 c0 -925 0 -940 21 -1007 68 -224 234 -379 440 -414 313 -53 562 104 653 410 14 47 16 166 16 1015 0 1067 4 1000 -68 1140 -74 144 -242 272 -387 295 -71 12 -173 11 -234 -1z m189 -90 c187 -43 352 -216 405 -424 23 -89 23 -1751 0 -1840 -56 -220 -211 -381 -402 -417 -205 -38 -449 139 -523 381 -19 61 -20 97 -20 947 l0 883 29 81 c72 197 195 332 349 381 66 21 99 23 162 8z"></path><path id="p0EBFNIBP" d="M10250 25046 c-179 -40 -327 -197 -406 -430 l-24 -70 0 -933 c0 -649 3 -948 11 -981 6 -26 31 -88 55 -138 102 -215 304 -328 554 -311 210 14 369 125 458 318 53 117 52 92 52 1121 0 1059 4 993 -68 1133 -44 87 -153 197 -240 243 -107 57 -264 76 -392 48z m209 -91 c144 -38 278 -149 344 -285 70 -142 67 -101 67 -1055 0 -839 -1 -862 -21 -935 -60 -217 -207 -367 -396 -402 -79 -14 -152 -1 -249 47 -132 65 -234 194 -281 359 l-23 78 0 834 c0 583 3 849 11 886 16 75 68 194 116 263 70 104 158 173 261 206 70 22 102 23 171 4z"></path><path id="pW4n5J9Q4" d="M11580 25047 c-174 -40 -318 -190 -400 -416 l-30 -82 0 -947 0 -947 29 -81 c91 -263 304 -406 581 -391 214 11 370 116 460 309 62 133 60 85 60 1123 0 802 -3 959 -15 1005 -22 83 -79 192 -133 251 -57 64 -176 143 -246 165 -69 21 -236 27 -306 11z m209 -92 c88 -23 162 -66 232 -135 79 -78 132 -170 159 -275 19 -75 20 -111 20 -930 0 -815 -1 -855 -20 -929 -55 -216 -208 -373 -397 -408 -176 -33 -388 92 -483 285 -73 150 -70 104 -70 1052 l0 850 29 81 c41 119 96 210 170 285 69 69 125 103 201 125 60 17 95 16 159 -1z"></path><path id="p1EGDdCGrg" d="M4598 24224 c-149 -27 -284 -97 -372 -195 -57 -63 -121 -190 -136 -268 -15 -80 -12 -248 5 -316 71 -280 310 -455 625 -459 41 -1 895 0 1898 2 l1822 2 0 625 0 625 -1882 -1 c-1562 -1 -1896 -3 -1960 -15z m3752 -614 l0 -540 -1847 2 -1848 3 -70 24 c-118 40 -186 79 -255 150 -134 136 -187 311 -145 474 44 168 160 299 326 369 140 59 48 56 2022 57 l1817 1 0 -540z"></path><path id="p17Hi34iDD" d="M12334 24179 c3 -34 6 -316 6 -625 l0 -564 1885 0 c1682 0 1894 2 1963 16 254 52 427 207 488 437 17 62 18 255 3 329 -14 71 -79 203 -125 256 -48 56 -130 116 -208 153 -132 62 -35 59 -2118 59 l-1901 0 7 -61z m3826 -45 c108 -25 205 -78 279 -153 247 -248 205 -609 -93 -803 -73 -47 -189 -85 -304 -98 -55 -6 -742 -10 -1854 -10 l-1768 0 0 540 0 540 1838 0 c1613 0 1845 -2 1902 -16z"></path><path id="pBPo92TX0" d="M9880 20213 l0 -781 -24 -16 c-14 -8 -35 -26 -48 -38 -13 -13 -41 -36 -62 -53 -21 -16 -44 -35 -51 -42 -12 -11 -82 -71 -121 -104 -11 -8 -40 -33 -65 -55 -26 -21 -55 -46 -65 -55 -11 -8 -40 -33 -65 -55 -25 -21 -62 -52 -83 -69 -20 -16 -54 -45 -74 -64 -20 -18 -52 -45 -71 -60 -19 -14 -49 -39 -65 -54 -17 -16 -46 -41 -65 -55 -19 -15 -49 -40 -65 -55 -17 -16 -47 -41 -66 -55 -19 -15 -37 -30 -40 -33 -6 -7 -81 -71 -134 -114 -20 -16 -54 -45 -74 -64 -20 -18 -52 -45 -71 -60 -19 -14 -49 -39 -65 -54 -17 -16 -46 -41 -65 -55 -19 -15 -49 -40 -65 -55 -17 -16 -47 -41 -66 -55 -19 -15 -37 -30 -40 -33 -6 -7 -81 -71 -134 -114 -20 -16 -54 -45 -74 -64 -20 -18 -52 -45 -71 -60 -19 -14 -49 -39 -65 -54 -17 -16 -47 -41 -66 -55 -19 -15 -37 -30 -40 -33 -6 -7 -83 -73 -134 -114 -21 -16 -50 -41 -65 -55 -15 -14 -44 -38 -65 -55 -21 -16 -44 -35 -51 -42 -12 -11 -82 -71 -121 -104 -11 -8 -40 -33 -65 -55 -26 -21 -55 -46 -65 -55 -11 -8 -40 -33 -65 -55 -25 -21 -62 -52 -83 -69 -20 -16 -52 -44 -71 -61 l-35 -32 0 -6861 0 -6861 170 0 170 0 0 4058 0 4057 56 45 c30 25 65 54 78 65 12 11 42 36 65 55 23 19 55 46 70 60 60 54 145 126 163 138 10 8 29 23 41 35 13 12 40 36 61 52 20 17 50 41 65 55 31 28 88 77 117 101 10 8 40 33 65 55 25 21 65 55 88 74 24 19 53 44 66 55 12 11 38 34 58 50 19 17 60 53 92 80 32 28 66 56 77 63 10 8 29 23 41 35 13 12 40 36 61 52 20 17 50 41 65 55 31 28 88 77 117 101 10 8 40 33 65 55 25 21 65 55 88 74 24 19 53 44 66 55 12 11 38 34 58 50 19 17 60 53 92 80 32 28 66 56 77 63 10 8 29 23 41 35 13 12 40 36 61 52 20 17 50 41 65 55 31 28 88 77 117 101 10 8 40 33 65 55 25 21 65 55 88 74 24 19 53 44 66 55 12 11 38 34 58 50 19 17 60 53 92 80 32 28 66 56 77 63 10 8 29 23 41 35 13 12 40 36 61 52 20 17 50 41 65 55 16 14 45 39 65 57 l36 32 0 3566 0 3565 -122 0 c-68 0 -147 3 -175 6 l-53 7 0 -780z m-17 -6204 c-16 -15 -588 -500 -1273 -1079 l-1245 -1051 -3 2468 -2 2468 22 22 c13 12 586 497 1273 1077 l1250 1056 3 -2467 2 -2468 -27 -26z"></path><path id="p6BZXj70U" d="M10540 17417 l0 -3564 28 -25 c46 -44 89 -82 128 -113 21 -16 48 -40 61 -52 12 -12 31 -27 41 -35 20 -14 121 -99 157 -133 12 -11 37 -32 56 -47 19 -14 49 -40 66 -57 18 -16 41 -36 51 -43 11 -7 45 -35 77 -63 32 -27 73 -63 93 -80 19 -16 47 -41 63 -55 15 -14 45 -38 65 -55 21 -16 48 -40 61 -52 12 -12 31 -27 41 -35 11 -7 45 -35 77 -63 32 -27 73 -63 92 -80 20 -16 46 -39 58 -50 13 -11 42 -36 66 -55 23 -19 63 -53 88 -74 25 -22 55 -47 65 -55 29 -24 86 -73 117 -101 15 -14 45 -38 65 -55 21 -16 48 -40 61 -52 12 -12 31 -27 41 -35 11 -7 45 -35 77 -63 32 -27 73 -63 92 -80 20 -16 46 -39 58 -50 13 -11 42 -36 66 -55 23 -19 63 -53 88 -74 25 -22 55 -47 65 -55 29 -24 86 -73 117 -101 15 -14 45 -38 65 -55 21 -16 48 -40 61 -52 12 -12 31 -27 41 -35 11 -7 45 -35 77 -63 32 -27 73 -63 92 -80 20 -16 46 -39 58 -50 13 -11 42 -36 66 -55 86 -71 134 -113 141 -124 4 -6 8 -1893 8 -4193 l0 -4183 170 0 170 0 2 6993 c3 5978 1 6993 -11 7001 -8 5 -26 20 -42 35 -15 14 -44 40 -65 56 -20 17 -58 48 -83 69 -25 22 -55 47 -65 55 -11 9 -32 27 -47 41 -15 14 -44 39 -65 55 -85 69 -120 98 -135 114 -9 9 -34 30 -55 46 -21 17 -50 41 -65 55 -15 14 -44 39 -65 55 -20 17 -58 48 -83 69 -25 22 -55 47 -65 55 -11 9 -32 27 -47 41 -15 14 -44 39 -65 55 -85 69 -120 98 -135 114 -9 9 -34 30 -54 46 -21 17 -59 48 -84 69 -25 22 -55 47 -65 55 -11 9 -32 27 -47 41 -15 14 -44 39 -65 55 -41 33 -120 100 -139 118 -7 7 -30 26 -51 42 -21 17 -50 41 -65 55 -15 14 -44 39 -65 55 -20 17 -58 48 -83 69 -25 22 -55 47 -65 55 -11 9 -32 27 -47 41 -15 14 -44 39 -65 55 -41 33 -120 100 -139 118 -7 7 -30 26 -51 42 -21 17 -50 41 -65 55 -15 14 -44 39 -65 55 -20 17 -58 48 -83 69 -25 22 -55 47 -65 55 -11 9 -32 27 -47 41 -15 14 -44 39 -65 55 -85 69 -120 98 -135 114 -9 9 -34 30 -55 46 -21 17 -54 45 -73 63 -19 17 -39 32 -43 32 -4 0 -8 349 -8 775 l0 775 -175 0 -175 0 0 -3563z m1639 463 l1250 -1055 0 -2474 c1 -2355 0 -2473 -16 -2459 -10 8 -584 493 -1275 1077 l-1258 1062 0 2470 0 2471 25 -19 c13 -10 587 -493 1274 -1073z"></path><path id="ps2MpD7SK" d="M4870 9880 l0 -7340 170 0 170 0 0 7288 c0 4008 3 7311 6 7340 l7 52 -177 0 -176 0 0 -7340z"></path><path id="pdG9RZX6w" d="M15560 9880 l0 -7340 170 0 170 0 0 7340 0 7340 -170 0 -170 0 0 -7340z"></path><path id="paQ1iTPQP" d="M10134 13018 c-16 -13 -33 -28 -39 -34 -10 -11 -142 -129 -254 -224 -29 -25 -65 -56 -80 -70 -15 -14 -51 -45 -80 -70 -29 -25 -65 -56 -80 -70 -15 -14 -51 -45 -80 -70 -29 -25 -61 -52 -70 -61 -18 -18 -176 -158 -260 -229 -29 -25 -65 -56 -80 -70 -15 -14 -51 -45 -80 -70 -29 -25 -65 -56 -80 -70 -15 -14 -51 -45 -80 -70 -29 -25 -61 -52 -70 -61 -18 -18 -176 -158 -260 -229 -29 -25 -65 -56 -80 -70 -15 -14 -51 -45 -80 -70 -29 -25 -65 -56 -80 -70 -15 -14 -51 -45 -80 -70 -29 -25 -61 -52 -70 -61 -9 -9 -61 -56 -116 -104 -55 -48 -116 -101 -136 -119 -19 -17 -59 -51 -88 -76 -29 -25 -65 -56 -80 -70 -15 -14 -53 -47 -84 -74 l-57 -50 0 -4343 0 -4343 145 0 145 0 0 1144 0 1144 40 32 c23 18 53 44 68 59 15 14 51 46 80 71 29 25 68 59 85 75 18 17 56 50 85 75 29 25 68 59 85 75 18 17 56 50 85 75 29 25 68 59 86 75 57 53 121 109 175 155 28 25 67 59 85 75 69 64 187 168 212 188 15 11 36 30 49 41 33 32 105 95 169 151 32 28 70 61 85 75 78 70 122 109 170 150 28 25 67 59 84 75 18 17 56 50 85 75 29 25 68 59 85 75 18 17 59 53 91 80 32 28 70 61 85 75 78 70 122 109 170 150 50 43 88 77 159 143 l32 30 0 3288 0 3289 -34 0 c-19 0 -45 -9 -62 -22z m-194 -3497 l0 -2798 -1027 -901 -1028 -901 -3 2797 -2 2797 32 31 c42 41 2020 1774 2024 1774 2 0 4 -1259 4 -2799z"></path><path id="p13QRAE4OQ" d="M10540 9752 c0 -3212 0 -3289 19 -3308 10 -10 43 -39 72 -64 53 -45 114 -99 175 -155 18 -16 57 -50 86 -75 29 -25 67 -58 85 -75 17 -16 56 -50 85 -75 29 -25 67 -58 85 -75 17 -16 56 -50 84 -75 54 -46 118 -102 175 -155 18 -16 57 -50 86 -75 29 -25 67 -58 85 -75 17 -16 56 -50 85 -75 29 -25 67 -58 85 -75 17 -16 56 -50 84 -75 48 -41 92 -80 170 -150 15 -14 53 -47 85 -75 32 -27 73 -63 91 -80 17 -16 56 -50 85 -75 29 -25 67 -58 85 -75 17 -16 56 -50 84 -75 48 -41 92 -80 170 -150 15 -14 53 -47 85 -75 32 -27 76 -67 98 -87 23 -20 52 -46 66 -56 l25 -20 5 -1169 5 -1168 148 -3 147 -3 0 4371 c0 2403 -4 4370 -8 4370 -4 0 -27 17 -50 38 -23 20 -65 57 -94 82 -63 54 -139 122 -249 220 -15 14 -51 45 -80 70 -29 25 -65 56 -80 70 -15 14 -51 45 -80 70 -29 25 -65 56 -80 70 -15 14 -51 45 -80 70 -62 53 -135 117 -250 220 -15 14 -51 45 -80 70 -29 25 -65 56 -80 70 -15 14 -51 45 -80 70 -29 25 -65 56 -80 70 -15 14 -51 45 -80 70 -62 53 -135 117 -250 220 -15 14 -51 45 -80 70 -29 25 -65 56 -80 70 -15 14 -51 45 -80 70 -29 25 -65 56 -80 70 -15 14 -52 45 -81 70 -29 25 -65 57 -81 72 -16 15 -36 33 -46 40 -10 7 -53 45 -96 83 -43 39 -96 86 -118 105 -22 19 -59 52 -81 73 -32 29 -49 37 -78 37 l-38 0 0 -3288z m1339 1658 l1010 -885 0 -2803 1 -2804 -39 34 c-21 18 -484 424 -1030 903 l-991 869 0 2799 c0 2772 0 2799 19 2786 11 -8 474 -412 1030 -899z"></path><path id="p1FUqwp80O" d="M3328 1845 c-3 -13 -3 -27 0 -30 3 -3 3240 -5 7193 -5 7097 0 7188 0 7199 19 5 11 10 24 10 30 0 8 -2110 11 -7199 11 l-7199 0 -4 -25z"></path></g></g><g id="l5QyFYsMBc6oUs93AMmehrQ" fill="rgb(253,7,0)" style="transform: none;"><g style="transform: none;"><path id="pbMvJBo1y" d="M4464 24157 c-93 -38 -165 -88 -225 -155 -43 -49 -104 -164 -114 -217 -5 -28 -4 -27 8 5 39 98 84 169 146 230 71 70 136 109 240 146 36 13 57 24 46 24 -11 0 -56 -15 -101 -33z"></path><path id="p5bQUrZVj" d="M12362 23603 l-2 -593 1848 2 1847 3 -1842 2 -1843 3 -3 588 -2 587 -3 -592z"></path><path id="pNDTmGhKr" d="M16261 24176 c188 -73 302 -187 371 -369 15 -42 18 -46 14 -17 -12 70 -76 181 -146 251 -67 67 -174 130 -245 143 -27 6 -27 5 6 -8z"></path><path id="pPiOP5o7H" d="M4619 24165 c-293 -58 -479 -273 -479 -553 0 -158 50 -281 160 -393 69 -71 137 -110 255 -150 l70 -24 1877 -3 1878 -2 0 570 0 570 -1847 -1 c-1490 -1 -1861 -3 -1914 -14z"></path><path id="p49lT9lA3" d="M12390 23610 l0 -570 1798 0 c1132 0 1829 4 1884 10 341 39 560 257 561 559 0 272 -175 492 -443 555 -57 14 -292 16 -1932 16 l-1868 0 0 -570z"></path><path id="pxlcd0WhC" d="M16663 23615 c0 -33 2 -45 4 -27 2 18 2 45 0 60 -2 15 -4 0 -4 -33z"></path><path id="pbqnpaVLJ" d="M16646 23475 c-11 -56 -57 -154 -102 -214 -69 -93 -193 -173 -329 -212 -33 -10 -52 -18 -43 -18 37 -2 178 51 234 87 79 52 155 131 192 200 33 62 66 165 59 185 -2 6 -7 -6 -11 -28z"></path><path id="pg8ftqn8u" d="M4125 23440 c4 -19 22 -68 42 -109 50 -103 145 -199 244 -245 110 -51 138 -54 34 -3 -148 72 -242 175 -301 330 -17 43 -23 51 -19 27z"></path><path id="pYht5t6Su" d="M4560 23030 c14 -4 36 -8 50 -8 22 0 22 1 -5 8 -16 4 -39 8 -50 8 -16 0 -15 -2 5 -8z"></path><path id="pBPBZrYr8" d="M5678 23013 c501 -2 1323 -2 1825 0 501 1 91 2 -913 2 -1004 0 -1414 -1 -912 -2z"></path></g></g><g id="lRgdT3kiwhlS6v18TgeMXh" fill="rgb(51,153,255)" style="transform: none;"><g style="transform: none;"><path id="pMJHqjReQ" d="M17730 29535 l0 -345 56 0 55 0 34 -72 c100 -218 154 -523 170 -955 l7 -183 524 0 524 0 0 605 0 605 50 0 50 0 0 345 0 345 -165 0 -165 0 0 -155 0 -155 -405 0 -405 0 0 155 0 155 -165 0 -165 0 0 -345z m880 -770 l0 -425 -59 0 -59 0 -7 118 c-14 243 -52 461 -112 645 l-29 87 133 0 133 0 0 -425z"></path><path id="p8TkrfKB2" d="M12190 28890 l0 -910 246 0 247 0 -6 66 -6 66 54 -51 c30 -29 81 -64 112 -79 50 -23 71 -27 148 -27 78 0 97 4 147 28 68 33 133 103 150 161 10 31 13 185 13 621 0 649 0 651 -70 732 -75 87 -217 124 -341 88 -67 -19 -100 -40 -166 -104 l-48 -45 0 182 0 182 -240 0 -240 0 0 -910z m606 409 c18 -20 19 -43 19 -513 0 -270 -3 -503 -8 -518 -13 -47 -93 -51 -119 -5 -10 17 -14 123 -16 437 -4 474 1 573 29 601 25 25 71 24 95 -2z"></path><path id="pP4snLrPQ" d="M16700 29663 l0 -130 76 -6 c86 -6 104 -17 104 -61 0 -18 -65 -354 -145 -746 -80 -393 -145 -720 -145 -727 0 -11 45 -13 217 -11 l218 3 76 510 c80 537 86 571 88 518 0 -18 17 -245 36 -504 19 -260 35 -485 35 -501 l0 -28 221 0 220 0 -6 43 c-3 23 -39 321 -80 662 -109 903 -109 900 -205 996 -46 47 -69 61 -126 79 -62 20 -95 23 -326 28 l-258 4 0 -129z"></path><path id="pDGDX2wSg" d="M2745 29603 c-221 -31 -377 -154 -438 -347 -22 -70 -22 -78 -22 -661 0 -583 0 -591 22 -661 57 -181 193 -297 395 -338 208 -43 447 7 574 118 54 46 110 131 135 204 26 75 38 286 38 677 0 629 -22 747 -168 877 -118 105 -337 158 -536 131z m158 -335 c34 -25 38 -112 35 -715 -3 -628 -3 -626 -53 -639 -34 -8 -63 3 -83 34 -15 24 -17 76 -20 585 -3 585 2 711 34 734 23 16 65 17 87 1z"></path><path id="p53ygvaYh" d="M13855 29590 c-221 -33 -332 -129 -382 -327 -15 -59 -18 -123 -18 -468 0 -437 5 -489 61 -603 54 -111 176 -197 324 -228 89 -19 273 -14 360 10 187 52 318 184 350 353 16 88 23 466 12 683 -13 245 -28 307 -100 402 -100 131 -245 190 -467 187 -49 -1 -112 -5 -140 -9z m201 -291 c18 -20 19 -43 19 -524 0 -481 -1 -504 -19 -524 -22 -25 -68 -28 -90 -6 -8 9 -18 30 -21 48 -3 18 -5 246 -3 508 3 453 4 478 22 498 24 27 68 27 92 0z"></path><path id="pD3zeJaMW" d="M940 29558 c0 -7 57 -444 127 -970 l128 -958 362 0 363 0 5 23 c7 32 285 1886 285 1903 0 12 -41 14 -254 14 l-254 0 -6 -37 c-3 -21 -8 -78 -11 -128 -3 -49 -8 -111 -11 -137 l-6 -48 -88 0 -89 0 -5 33 c-6 37 -26 265 -26 296 0 21 -3 21 -260 21 -201 0 -260 -3 -260 -12z m716 -715 c-9 -52 -54 -507 -62 -623 -4 -52 -10 -103 -13 -113 -4 -10 -17 59 -30 155 -25 192 -70 573 -71 601 0 15 11 17 91 17 l91 0 -6 -37z"></path><path id="pKoLU9Jcq" d="M4870 29558 c0 -7 57 -444 127 -970 l128 -958 362 0 363 0 5 23 c7 32 285 1886 285 1903 0 12 -41 14 -254 14 l-254 0 -6 -37 c-3 -21 -8 -78 -11 -128 -3 -49 -8 -111 -11 -137 l-6 -48 -88 0 -89 0 -5 33 c-6 37 -26 265 -26 296 0 21 -3 21 -260 21 -201 0 -260 -3 -260 -12z m716 -715 c-9 -52 -54 -507 -62 -623 -4 -52 -10 -103 -13 -113 -4 -10 -17 59 -30 155 -25 192 -70 573 -71 601 0 15 11 17 91 17 l91 0 -6 -37z"></path><path id="pac6Ox3q8" d="M6560 29559 c-194 -32 -289 -113 -336 -286 -9 -33 -18 -122 -21 -205 l-6 -148 231 0 230 0 4 151 3 151 28 24 c35 30 68 31 103 1 22 -20 27 -34 35 -102 18 -180 6 -256 -46 -287 -17 -9 -66 -21 -110 -25 l-80 -8 -3 -112 -3 -111 95 -4 c81 -2 99 -6 116 -24 30 -30 41 -87 34 -173 -7 -83 -32 -121 -78 -121 -72 0 -96 40 -96 156 l0 74 -231 0 -232 0 6 -102 c14 -268 116 -382 373 -417 163 -23 338 -9 464 36 98 35 176 109 211 198 30 80 33 253 6 332 -20 58 -73 113 -134 138 l-38 16 51 25 c63 30 128 98 144 150 36 121 19 349 -32 447 -41 77 -129 157 -203 185 -121 46 -338 65 -485 41z"></path><path id="p1AyXQFO1l" d="M7460 28775 l0 -795 210 0 210 0 2 419 3 419 161 -416 162 -417 226 -3 226 -2 0 795 0 795 -210 0 -210 0 -2 -422 c-2 -333 -6 -418 -15 -398 -6 14 -81 203 -167 420 l-155 395 -220 3 -221 2 0 -795z"></path><path id="p12btMKLZP" d="M8830 29321 c0 -265 7 -335 41 -382 23 -32 84 -66 169 -94 l55 -18 -58 -13 c-163 -38 -202 -106 -202 -359 0 -174 14 -231 74 -311 93 -125 272 -163 759 -164 l252 0 0 795 0 795 -240 0 -240 0 0 -310 0 -310 -25 0 c-49 0 -103 30 -122 68 -15 32 -18 71 -21 295 l-4 257 -219 0 -219 0 0 -249z m610 -841 l0 -190 -42 0 c-61 0 -105 29 -115 77 -15 70 -7 210 14 246 20 33 65 55 116 56 l27 1 0 -190z"></path><path id="pqU8VnBKl" d="M10000 29558 c0 -7 57 -444 127 -970 l128 -958 362 0 363 0 5 23 c7 32 285 1886 285 1903 0 12 -41 14 -254 14 l-254 0 -6 -37 c-3 -21 -8 -78 -11 -128 -3 -49 -8 -111 -11 -137 l-6 -48 -88 0 -89 0 -5 33 c-6 37 -26 265 -26 296 0 21 -3 21 -260 21 -201 0 -260 -3 -260 -12z m716 -715 c-9 -52 -54 -507 -62 -623 -4 -52 -10 -103 -13 -113 -4 -10 -17 59 -30 155 -25 192 -70 573 -71 601 0 15 11 17 91 17 l91 0 -6 -37z"></path><path id="p1E3sIekCE" d="M11340 28775 l0 -795 380 0 380 0 0 140 0 140 -140 0 -140 0 0 655 0 655 -240 0 -240 0 0 -795z"></path><path id="prpLG172R" d="M15360 29410 l0 -160 -84 0 c-170 0 -324 -34 -410 -92 -66 -43 -127 -130 -157 -219 -23 -71 -24 -86 -24 -344 0 -257 1 -273 23 -334 76 -212 211 -289 530 -307 l122 -7 0 -163 0 -164 255 0 255 0 0 164 0 163 128 7 c285 15 417 77 499 233 52 98 58 143 58 413 0 270 -6 315 -58 413 -84 159 -215 222 -489 234 l-138 6 0 158 0 159 -255 0 -255 0 0 -160z m0 -810 l0 -350 -30 0 c-53 0 -86 25 -117 87 -28 58 -28 58 -28 263 0 205 0 205 28 263 31 62 62 86 115 87 l32 0 0 -350z m611 333 c16 -10 41 -40 54 -67 24 -48 25 -56 25 -266 0 -210 -1 -218 -25 -266 -28 -56 -67 -84 -119 -84 l-36 0 0 350 0 350 36 0 c20 0 49 -8 65 -17z"></path><path id="p35LDkLG8" d="M4063 29075 l-50 -344 50 -326 51 -325 143 0 143 0 -5 23 c-2 12 -25 158 -51 325 l-46 303 47 322 c25 177 49 332 52 345 l5 22 -144 0 -144 0 -51 -345z"></path><path id="psL8PvXmO" d="M4503 29075 l-51 -344 51 -326 51 -325 144 0 144 0 -6 28 c-3 15 -26 161 -52 324 l-46 297 46 318 c26 175 49 330 52 346 l6 27 -144 0 -144 0 -51 -345z"></path><path id="pFabQQPoB" d="M19273 29408 c2 -7 26 -164 52 -348 l49 -335 -50 -320 -50 -320 139 -3 c77 -1 141 -1 143 1 2 1 26 147 53 324 l51 322 -50 341 c-28 187 -50 342 -50 345 0 3 -66 5 -146 5 -113 0 -145 -3 -141 -12z"></path><path id="pFoQUNd0x" d="M19714 29403 c2 -10 26 -165 52 -346 l48 -327 -48 -308 c-26 -169 -50 -315 -52 -324 -5 -17 6 -18 140 -18 80 0 146 4 146 8 0 5 23 151 50 326 l51 317 -51 335 c-27 185 -50 340 -50 345 0 5 -65 9 -146 9 -134 0 -145 -1 -140 -17z"></path><path id="pfF8qijiZ" d="M2020 13750 l0 -13220 8510 0 8510 0 0 13220 0 13220 -8510 0 -8510 0 0 -13220z m16320 5 l0 -12535 -7810 0 -7810 0 0 12535 0 12535 7810 0 7810 0 0 -12535z"></path><path id="pvSRBW5Ai" d="M3330 13755 l0 -11915 7200 0 7200 0 0 11915 0 11915 -7200 0 -7200 0 0 -11915z m7220 11430 c14 -3 30 -7 35 -9 53 -13 187 -75 193 -88 2 -5 7 -8 12 -8 15 0 95 -72 135 -120 30 -37 95 -149 95 -164 0 -7 3 -16 8 -20 4 -4 12 -22 19 -39 6 -18 12 -25 12 -16 1 16 42 99 84 169 32 53 134 150 207 197 36 23 103 54 150 69 77 25 99 28 230 28 138 0 150 -2 242 -33 53 -18 102 -39 109 -47 6 -8 18 -14 25 -14 8 0 14 -4 14 -10 0 -5 4 -10 10 -10 23 0 160 -136 160 -159 0 -5 3 -11 8 -13 9 -4 72 -140 72 -156 0 -9 433 -12 1803 -13 991 0 1809 -2 1817 -4 8 -1 31 -5 50 -9 34 -6 60 -11 100 -21 11 -3 28 -7 38 -9 76 -18 331 -124 352 -146 3 -3 30 -21 60 -40 117 -74 235 -194 328 -334 40 -60 72 -113 72 -118 0 -6 6 -24 14 -41 71 -163 94 -379 61 -573 -26 -152 -114 -345 -205 -454 -61 -72 -163 -168 -230 -216 -41 -30 -80 -57 -85 -61 -20 -14 -212 -107 -245 -118 -3 -1 -18 -7 -33 -13 -15 -7 -42 -14 -59 -17 -17 -3 -35 -8 -40 -11 -8 -5 -24 -9 -78 -20 -14 -3 -43 -9 -65 -14 -23 -6 -785 -10 -1841 -10 -1429 0 -1804 -3 -1811 -12 -6 -7 -16 -30 -23 -51 -6 -20 -17 -43 -23 -50 -7 -6 -25 -31 -41 -55 -25 -36 -78 -93 -151 -159 -7 -7 -18 -13 -23 -13 -6 0 -12 -3 -14 -7 -3 -9 -117 -65 -163 -81 -105 -36 -286 -44 -400 -18 -67 16 -183 60 -195 75 -3 3 -27 21 -53 39 -62 44 -147 131 -147 151 0 5 -3 11 -8 13 -7 3 -60 115 -77 163 -5 16 -11 9 -26 -35 -11 -30 -24 -62 -30 -70 -5 -8 -15 -26 -22 -40 -35 -72 -150 -181 -246 -234 -139 -77 -329 -107 -481 -76 -30 6 -64 13 -75 15 -11 3 -49 18 -83 35 -34 16 -67 30 -72 30 -6 0 -10 5 -10 10 0 6 -5 10 -11 10 -6 0 -16 6 -24 13 -7 6 -29 25 -49 42 -20 16 -56 54 -79 85 -23 30 -44 57 -47 60 -9 9 -54 104 -66 140 -11 33 -13 34 -19 12 -32 -100 -110 -222 -189 -294 -61 -56 -64 -58 -75 -58 -5 0 -11 -3 -13 -7 -9 -23 -188 -91 -263 -101 -161 -22 -314 1 -440 65 -92 48 -132 80 -232 188 -7 8 -13 18 -13 23 0 6 -4 12 -8 14 -9 3 -65 117 -77 156 l-6 22 -1807 0 c-1957 0 -1803 -3 -2007 44 -28 6 -154 49 -180 61 -136 63 -149 70 -225 120 -59 39 -53 35 -142 115 -42 39 -96 96 -120 128 -23 31 -46 59 -50 60 -5 2 -8 10 -8 18 0 8 -4 14 -10 14 -5 0 -10 4 -10 9 0 5 -13 31 -29 58 -27 44 -88 206 -96 257 -39 222 -32 366 26 541 38 117 62 164 151 299 24 35 193 202 230 226 21 14 38 28 38 33 0 4 6 7 14 7 8 0 16 3 18 8 4 9 87 56 168 93 101 47 252 97 360 119 96 20 138 20 1892 20 l1793 0 30 65 c17 36 33 65 38 65 4 0 7 5 7 10 0 13 9 24 76 94 142 148 308 219 519 220 130 1 161 -5 277 -47 37 -14 75 -32 83 -41 9 -9 20 -16 25 -16 30 0 188 -176 216 -240 37 -85 44 -102 45 -118 0 -12 4 -9 11 8 21 49 63 135 68 140 3 3 22 28 43 56 34 47 68 82 138 139 44 36 144 84 229 109 73 21 101 24 200 21 63 -1 126 -6 140 -10z m-350 -7771 l0 -3535 -36 -32 c-20 -18 -49 -43 -65 -57 -15 -14 -45 -38 -65 -55 -21 -16 -48 -40 -61 -52 -12 -12 -31 -27 -41 -35 -11 -7 -45 -35 -77 -63 -32 -27 -73 -63 -92 -80 -20 -16 -46 -39 -58 -50 -13 -11 -42 -36 -66 -55 -23 -19 -63 -53 -88 -74 -25 -22 -55 -47 -65 -55 -29 -24 -86 -73 -117 -101 -15 -14 -45 -38 -65 -55 -21 -16 -48 -40 -61 -52 -12 -12 -31 -27 -41 -35 -11 -7 -45 -35 -77 -63 -32 -27 -73 -63 -92 -80 -20 -16 -46 -39 -58 -50 -13 -11 -42 -36 -66 -55 -23 -19 -63 -53 -88 -74 -25 -22 -55 -47 -65 -55 -29 -24 -86 -73 -117 -101 -15 -14 -45 -38 -65 -55 -21 -16 -48 -40 -61 -52 -12 -12 -31 -27 -41 -35 -11 -7 -45 -35 -77 -63 -32 -27 -73 -63 -92 -80 -20 -16 -46 -39 -58 -50 -13 -11 -42 -36 -66 -55 -23 -19 -63 -53 -88 -74 -25 -22 -55 -47 -65 -55 -29 -24 -86 -73 -117 -101 -15 -14 -45 -38 -65 -55 -21 -16 -48 -40 -61 -52 -12 -12 -31 -27 -41 -35 -18 -12 -103 -84 -163 -138 -15 -14 -47 -41 -70 -60 -23 -19 -53 -44 -65 -55 -13 -11 -48 -40 -78 -65 l-56 -45 0 -4057 0 -4058 -140 0 -140 0 0 6831 0 6831 35 32 c19 17 51 45 71 61 21 17 58 48 83 69 25 22 54 47 65 55 10 9 39 34 65 55 25 22 54 47 65 55 39 33 109 93 121 104 7 7 30 26 51 42 21 17 50 41 65 55 15 14 44 39 65 55 51 41 128 107 134 114 3 3 21 18 40 33 19 14 49 39 66 55 16 15 46 40 65 54 19 15 51 42 71 60 20 19 54 48 74 64 53 43 128 107 134 114 3 3 21 18 40 33 19 14 49 39 66 55 16 15 46 40 65 55 19 14 48 39 65 55 16 15 46 40 65 54 19 15 51 42 71 60 20 19 54 48 74 64 53 43 128 107 134 114 3 3 21 18 40 33 19 14 49 39 66 55 16 15 46 40 65 55 19 14 48 39 65 55 16 15 46 40 65 54 19 15 51 42 71 60 20 19 54 48 74 64 21 17 58 48 83 69 25 22 54 47 65 55 10 9 39 34 65 55 25 22 54 47 65 55 39 33 109 93 121 104 7 7 30 26 51 42 21 17 49 40 62 53 13 12 34 30 48 38 l24 16 0 777 0 776 145 -3 145 -3 0 -3535z m660 2761 c0 -426 4 -775 8 -775 4 0 24 -15 43 -32 19 -18 52 -46 73 -63 21 -16 46 -37 55 -46 15 -16 50 -45 135 -114 21 -16 50 -41 65 -55 15 -14 36 -32 47 -41 10 -8 40 -33 65 -55 25 -21 63 -52 83 -69 21 -16 50 -41 65 -55 15 -14 44 -38 65 -55 21 -16 44 -35 51 -42 19 -18 98 -85 139 -118 21 -16 50 -41 65 -55 15 -14 36 -32 47 -41 10 -8 40 -33 65 -55 25 -21 63 -52 83 -69 21 -16 50 -41 65 -55 15 -14 44 -38 65 -55 21 -16 44 -35 51 -42 19 -18 98 -85 139 -118 21 -16 50 -41 65 -55 15 -14 36 -32 47 -41 10 -8 40 -33 65 -55 25 -21 63 -52 84 -69 20 -16 45 -37 54 -46 15 -16 50 -45 135 -114 21 -16 50 -41 65 -55 15 -14 36 -32 47 -41 10 -8 40 -33 65 -55 25 -21 63 -52 83 -69 21 -16 50 -41 65 -55 15 -14 44 -38 65 -55 21 -16 46 -37 55 -46 15 -16 50 -45 135 -114 21 -16 50 -41 65 -55 15 -14 36 -32 47 -41 10 -8 40 -33 65 -55 25 -21 62 -52 83 -69 20 -16 53 -45 73 -62 19 -18 38 -33 42 -33 3 0 5 -3134 3 -6965 l-2 -6965 -140 0 -140 0 0 4183 c0 2300 -4 4187 -8 4193 -7 11 -55 53 -141 124 -24 19 -53 44 -66 55 -12 11 -38 34 -58 50 -19 17 -60 53 -92 80 -32 28 -66 56 -77 63 -10 8 -29 23 -41 35 -13 12 -40 36 -61 52 -20 17 -50 41 -65 55 -31 28 -88 77 -117 101 -10 8 -40 33 -65 55 -25 21 -65 55 -88 74 -24 19 -53 44 -66 55 -12 11 -38 34 -58 50 -19 17 -60 53 -92 80 -32 28 -66 56 -77 63 -10 8 -29 23 -41 35 -13 12 -40 36 -61 52 -20 17 -50 41 -65 55 -31 28 -88 77 -117 101 -10 8 -40 33 -65 55 -25 21 -65 55 -88 74 -24 19 -53 44 -66 55 -12 11 -38 34 -58 50 -19 17 -60 53 -92 80 -32 28 -66 56 -77 63 -10 8 -29 23 -41 35 -13 12 -40 36 -61 52 -20 17 -50 41 -65 55 -16 14 -44 39 -63 55 -20 17 -61 53 -93 80 -32 28 -66 56 -77 63 -10 7 -33 27 -51 43 -17 17 -47 43 -66 57 -19 15 -44 36 -56 47 -36 34 -137 119 -157 133 -10 8 -29 23 -41 35 -13 12 -40 36 -61 52 -39 31 -82 69 -128 113 l-28 25 0 3534 0 3533 145 0 145 0 0 -775z m-5678 -10295 l-2 -7310 -140 0 -140 0 0 7310 0 7310 143 0 142 0 -3 -7310z m10688 0 l0 -7310 -140 0 -140 0 0 7310 0 7310 140 0 140 0 0 -7310z m-5670 -129 l0 -3258 -32 -30 c-71 -66 -109 -100 -159 -143 -48 -41 -92 -80 -170 -150 -15 -14 -53 -47 -85 -75 -32 -27 -73 -63 -91 -80 -17 -16 -56 -50 -85 -75 -29 -25 -67 -58 -85 -75 -17 -16 -56 -50 -84 -75 -48 -41 -92 -80 -170 -150 -15 -14 -53 -47 -85 -75 -64 -56 -136 -119 -169 -151 -13 -11 -34 -30 -49 -41 -25 -20 -143 -124 -212 -188 -18 -16 -57 -50 -85 -75 -54 -46 -118 -102 -175 -155 -18 -16 -57 -50 -86 -75 -29 -25 -67 -58 -85 -75 -17 -16 -56 -50 -85 -75 -29 -25 -67 -58 -85 -75 -17 -16 -56 -50 -85 -75 -29 -25 -65 -57 -80 -71 -15 -15 -45 -41 -68 -59 l-40 -32 0 -1144 0 -1144 -115 0 -115 0 0 4313 0 4313 57 50 c31 27 69 60 84 74 15 14 51 45 80 70 29 25 69 59 88 76 20 18 81 71 136 119 55 48 107 95 116 104 9 9 41 36 70 61 29 25 65 56 80 70 15 14 51 45 80 70 29 25 65 56 80 70 15 14 51 45 80 70 84 71 242 211 260 229 9 9 41 36 70 61 29 25 65 56 80 70 15 14 51 45 80 70 29 25 65 56 80 70 15 14 51 45 80 70 84 71 242 211 260 229 9 9 41 36 70 61 29 25 65 56 80 70 15 14 51 45 80 70 29 25 65 56 80 70 15 14 51 45 80 70 112 95 244 213 254 224 11 13 66 56 71 56 2 0 4 -1466 4 -3259z m426 3222 c22 -21 59 -54 81 -73 22 -19 75 -66 118 -105 43 -38 86 -76 96 -83 10 -7 30 -25 46 -40 16 -15 52 -47 81 -72 29 -25 66 -56 81 -70 15 -14 51 -45 80 -70 29 -25 65 -56 80 -70 15 -14 51 -45 80 -70 29 -25 65 -56 80 -70 115 -103 188 -167 250 -220 29 -25 65 -56 80 -70 15 -14 51 -45 80 -70 29 -25 65 -56 80 -70 15 -14 51 -45 80 -70 29 -25 65 -56 80 -70 115 -103 188 -167 250 -220 29 -25 65 -56 80 -70 15 -14 51 -45 80 -70 29 -25 65 -56 80 -70 15 -14 51 -45 80 -70 29 -25 65 -56 80 -70 110 -98 186 -166 249 -220 29 -25 71 -62 94 -82 23 -21 46 -38 50 -38 4 0 8 -1953 8 -4340 l0 -4341 -117 3 -118 3 0 1160 0 1160 -26 25 c-35 33 -102 94 -173 155 -32 28 -70 61 -85 75 -78 70 -122 109 -170 150 -28 25 -67 59 -84 75 -18 17 -56 50 -85 75 -29 25 -68 59 -85 75 -18 17 -59 53 -91 80 -32 28 -70 61 -85 75 -78 70 -122 109 -170 150 -28 25 -67 59 -84 75 -18 17 -56 50 -85 75 -29 25 -68 59 -85 75 -18 17 -56 50 -85 75 -29 25 -68 59 -86 75 -57 53 -121 109 -175 155 -28 25 -67 59 -84 75 -18 17 -56 50 -85 75 -29 25 -68 59 -85 75 -18 17 -56 50 -85 75 -29 25 -68 59 -86 75 -61 56 -122 110 -175 155 -29 25 -62 54 -72 64 -19 19 -19 95 -19 3278 0 1792 3 3258 8 3258 4 0 26 -17 48 -37z"></path><path id="pey48JnPv" d="M10232 25150 c-96 -26 -152 -51 -227 -105 -114 -81 -205 -207 -250 -349 -15 -44 -29 -88 -32 -96 -3 -8 -13 24 -23 73 -65 311 -339 508 -673 483 -108 -8 -222 -43 -305 -93 -114 -69 -231 -203 -279 -318 l-18 -45 -1840 -3 -1840 -3 -95 -26 c-267 -76 -469 -186 -628 -346 -440 -440 -394 -1132 102 -1516 151 -116 290 -184 501 -243 l100 -28 1847 -2 1847 -3 11 -38 c48 -147 178 -300 310 -365 203 -99 420 -101 620 -5 68 33 101 57 168 123 67 68 89 98 121 166 21 46 44 113 51 149 17 84 26 93 35 33 10 -67 58 -188 99 -248 136 -202 366 -306 626 -283 220 19 415 150 512 343 24 50 50 119 58 155 14 69 30 101 30 59 0 -43 40 -172 73 -234 45 -85 165 -202 247 -242 207 -100 457 -99 653 4 126 67 244 196 297 326 l24 57 1812 0 c2006 0 1850 -5 2068 66 396 129 673 395 783 751 25 82 27 101 27 268 0 168 -2 186 -28 270 -103 337 -364 602 -716 730 -41 14 -118 39 -170 53 l-95 27 -1842 3 c-1710 2 -1843 4 -1843 19 0 34 -80 180 -130 235 -66 75 -167 140 -265 174 -113 39 -277 45 -394 15 -242 -61 -419 -232 -486 -471 -20 -72 -35 -97 -35 -59 0 13 -8 53 -19 89 -54 190 -169 328 -339 407 -138 64 -307 80 -450 43z m-1030 -146 c129 -45 255 -155 320 -280 72 -137 68 -75 68 -1109 0 -1021 3 -967 -60 -1097 -135 -279 -433 -383 -701 -246 -140 72 -236 193 -288 362 -21 67 -21 82 -21 977 l0 908 30 82 c83 229 233 381 411 419 58 12 186 4 241 -16z m1281 11 c187 -39 361 -210 421 -414 14 -48 16 -162 16 -979 0 -807 -2 -932 -16 -985 -91 -354 -433 -521 -745 -365 -111 55 -187 134 -243 252 -24 50 -49 112 -55 138 -8 32 -11 324 -11 951 l0 903 24 70 c79 233 227 390 406 430 74 17 122 16 203 -1z m1373 -10 c70 -20 189 -100 246 -164 54 -59 111 -168 133 -251 21 -80 22 -1868 1 -1948 -38 -143 -123 -270 -224 -337 -125 -83 -254 -110 -389 -82 -195 42 -344 178 -414 381 l-29 81 0 917 0 917 30 82 c82 226 226 376 400 416 65 15 174 10 246 -12z m-3446 -1390 l0 -595 -1822 -2 c-1003 -1 -1845 -1 -1873 0 -95 3 -180 24 -273 68 -74 35 -107 57 -161 111 -108 108 -171 259 -171 409 0 102 15 168 59 259 65 136 167 229 316 289 140 56 66 54 2073 55 l1852 1 0 -595z m7766 580 c131 -25 266 -101 348 -197 46 -53 111 -185 125 -256 15 -73 14 -206 -3 -269 -61 -230 -234 -385 -488 -437 -69 -14 -279 -16 -1933 -16 l-1855 0 0 579 c0 319 -3 586 -6 595 -6 15 163 16 1864 16 1612 0 1881 -2 1948 -15z"></path><path id="p13oGikMeo" d="M8899 24971 c-138 -54 -252 -187 -320 -371 -16 -44 -29 -86 -29 -93 1 -7 14 23 30 66 75 202 185 330 337 393 32 13 51 23 43 23 -8 0 -36 -8 -61 -18z"></path><path id="pFxZEAiQV" d="M9181 24972 c174 -71 303 -211 360 -392 10 -30 18 -47 18 -38 1 29 -44 145 -80 204 -63 105 -211 218 -314 239 -19 4 -14 -1 16 -13z"></path><path id="p10XqBKgwY" d="M9565 23615 c0 -500 1 -704 2 -452 2 252 2 662 0 910 -1 249 -2 43 -2 -458z"></path><path id="pRln0cI9X" d="M8550 22709 c0 -34 41 -146 75 -204 74 -124 218 -234 325 -250 33 -5 33 -5 -7 9 -176 58 -306 197 -369 391 -13 38 -23 63 -24 54z"></path><path id="pnW8RjwMa" d="M9547 22671 c-10 -46 -55 -147 -91 -201 -60 -91 -154 -164 -260 -202 -42 -15 -45 -17 -16 -13 110 16 248 127 311 250 41 78 73 169 67 187 -3 7 -8 -2 -11 -21z"></path><path id="pLxxBEpwK" d="M10192 24954 c-68 -34 -144 -103 -194 -178 -45 -66 -102 -191 -112 -246 -3 -20 4 -7 18 30 66 184 167 315 296 385 75 40 69 47 -8 9z"></path><path id="p3x9k3S6P" d="M10569 24944 c135 -68 253 -209 302 -364 10 -30 18 -47 18 -38 1 26 -42 140 -74 194 -44 75 -152 177 -228 213 -90 43 -106 39 -18 -5z"></path><path id="p6fTPUq73" d="M10892 23626 c-2 -967 -1 -949 -54 -1065 -64 -139 -165 -235 -300 -288 -45 -17 -53 -22 -28 -18 62 9 160 65 219 124 66 66 122 167 151 272 20 73 20 93 17 974 l-2 900 -3 -899z"></path><path id="p1H1rq1zhX" d="M9872 23609 l-2 -877 23 -78 c48 -165 149 -294 281 -359 39 -19 87 -37 106 -40 34 -5 34 -5 -6 8 -133 45 -255 146 -316 264 -79 150 -72 64 -78 1063 l-5 895 -3 -876z"></path><path id="p1BTqz1QlK" d="M11515 24953 c-69 -36 -174 -144 -220 -227 -21 -38 -51 -105 -66 -150 l-29 -81 3 -890 2 -890 5 900 5 900 28 70 c68 171 168 296 284 358 37 20 61 36 53 36 -8 0 -37 -12 -65 -26z"></path><path id="pnul6NbTN" d="M11867 24960 c69 -31 157 -95 207 -151 51 -57 120 -190 132 -254 4 -22 9 -34 11 -28 8 22 -27 126 -64 193 -48 87 -150 186 -234 228 -37 17 -73 32 -80 32 -8 0 5 -9 28 -20z"></path><path id="p14uJkGE3V" d="M12225 23615 c0 -495 1 -696 2 -447 2 250 2 655 0 900 -1 246 -2 42 -2 -453z"></path><path id="pSBYD7fcw" d="M11210 22699 c0 -27 37 -126 72 -191 62 -117 215 -236 328 -254 25 -3 18 1 -23 16 -165 59 -286 186 -348 364 -16 44 -29 74 -29 65z"></path><path id="pAEpnTpk1" d="M12206 22675 c-11 -58 -70 -180 -117 -242 -45 -60 -146 -132 -229 -163 -43 -16 -47 -20 -20 -15 109 17 248 129 312 252 38 72 72 175 65 196 -2 6 -7 -6 -11 -28z"></path></g></g><g id="l6n4PLJINC3UOJySwfgZV2A" fill="rgb(255,214,91)" style="transform: none;"><g style="transform: none;"><path id="puyhsLWqG" d="M8928 24981 c-154 -49 -277 -184 -349 -381 l-29 -81 0 -913 c0 -880 1 -916 20 -977 40 -131 150 -269 260 -328 253 -135 542 -40 669 221 74 152 71 99 71 1093 0 987 3 942 -67 1085 -66 137 -213 257 -353 289 -67 16 -158 12 -222 -8z"></path><path id="pXeRUKaGr" d="M10258 24981 c-103 -33 -191 -102 -261 -206 -48 -69 -100 -188 -116 -263 -8 -37 -11 -310 -11 -916 l0 -864 23 -78 c72 -251 270 -414 502 -414 229 0 414 157 484 410 21 73 21 96 21 965 0 987 3 942 -67 1085 -45 92 -152 203 -234 244 -119 58 -236 70 -341 37z"></path><path id="pjBL262YY" d="M11600 24986 c-76 -22 -132 -56 -201 -125 -74 -75 -129 -166 -170 -285 l-29 -81 0 -880 c0 -982 -3 -932 70 -1082 108 -220 349 -337 575 -278 176 46 313 197 365 401 19 74 20 114 20 959 0 849 -1 885 -20 960 -51 199 -205 361 -391 410 -65 18 -158 18 -219 1z"></path><path id="p19HGMIzOH" d="M8640 17974 c-701 -592 -1287 -1088 -1303 -1103 l-27 -26 2 -2523 3 -2523 1275 1076 c701 592 1287 1089 1303 1104 l27 26 -2 2523 -3 2523 -1275 -1077z"></path><path id="p4dnvYKdg" d="M10850 16521 l0 -2520 1288 -1087 c708 -598 1295 -1094 1305 -1102 16 -14 17 106 16 2514 l0 2529 -1292 1090 c-710 600 -1297 1091 -1304 1093 -11 3 -13 -453 -13 -2517z"></path><path id="pPeq6YYjI" d="M8905 11476 l-1050 -922 -3 -2858 c-2 -2762 -1 -2857 16 -2844 10 7 487 424 1060 927 l1042 914 0 2853 c0 1570 -3 2854 -7 2853 -5 0 -480 -416 -1058 -923z"></path><path id="pJ8REcBAb" d="M10800 9548 l0 -2854 1031 -904 c567 -498 1044 -915 1060 -928 l29 -23 -1 2858 0 2858 -1051 920 c-577 506 -1054 922 -1059 923 -5 2 -9 -1174 -9 -2850z"></path></g></g></svg>