<svg class="img-fluid" id="outputsvg" xmlns="http://www.w3.org/2000/svg" style="transform: matrix(0.769231, 0, 0, 0.769231, -45.816, -33.9505); transform-origin: 50% 50% 0px; cursor: move; max-height: none; transition: none 0s ease 0s;" width="1705" height="2645" viewBox="0 0 17050 26450"><g id="l4Junyylku54cd29oRAXv2X" fill="rgb(7,6,10)" style="transform: none;"><g style="transform: none;"><path id="pIoBrziXw" d="M0 13225 l0 -13225 8525 0 8525 0 0 13225 c0 11749 -2 13225 -15 13225 -13 0 -15 -1474 -15 -13205 l0 -13205 -8485 0 -8485 0 0 13205 0 13205 -25 0 -25 0 0 -13225z"></path><path id="pVCFxmmo8" d="M690 13235 l0 -12565 7840 0 7840 0 0 12565 0 12565 -7840 0 -7840 0 0 -12565z m15010 0 l0 -11885 -7170 0 -7170 0 0 11885 0 11885 7170 0 7170 0 0 -11885z"></path></g></g><g id="l5b1ZndsuK9YcFT1TvIBXSP" fill="rgb(46,35,34)" style="transform: none;"><g style="transform: none;"><path id="pSAWkQp2R" d="M1095 13235 c0 -6688 1 -9423 2 -6077 2 3346 2 8818 0 12160 -1 3342 -2 605 -2 -6083z"></path><path id="pqOYho1dO" d="M15965 13235 c0 -6688 1 -9423 2 -6077 2 3346 2 8818 0 12160 -1 3342 -2 605 -2 -6083z"></path><path id="pIwT3dK0I" d="M8180 24685 c-86 -27 -186 -74 -229 -110 -70 -57 -104 -92 -138 -139 -21 -28 -40 -53 -43 -56 -3 -3 -13 -23 -24 -45 -12 -25 -20 -34 -23 -25 -18 60 -81 148 -162 223 -34 31 -66 57 -71 57 -5 0 -16 7 -25 16 -20 20 -131 62 -215 81 -89 20 -299 12 -395 -16 -136 -39 -226 -92 -322 -191 -72 -73 -83 -87 -83 -100 0 -5 -3 -10 -7 -10 -5 0 -21 -29 -38 -65 l-30 -65 -1793 0 c-1754 0 -1796 0 -1892 -20 -108 -22 -259 -72 -360 -119 -81 -37 -164 -84 -168 -93 -2 -5 -10 -8 -18 -8 -8 0 -14 -3 -14 -7 0 -5 -17 -19 -37 -33 -45 -31 -108 -85 -142 -124 -14 -17 -37 -42 -51 -57 -28 -31 -36 -42 -83 -115 -106 -167 -157 -353 -157 -575 0 -145 28 -308 70 -404 49 -112 78 -167 93 -173 4 -2 7 -8 7 -13 0 -5 6 -17 14 -26 86 -106 125 -152 151 -173 16 -14 42 -36 57 -50 39 -35 47 -41 98 -75 76 -50 103 -64 225 -119 63 -29 184 -65 282 -85 101 -21 117 -21 1907 -21 l1805 0 6 -22 c12 -39 68 -153 77 -156 4 -2 8 -8 8 -14 0 -5 6 -15 13 -23 100 -108 139 -140 232 -188 114 -59 177 -71 350 -71 128 0 171 3 215 18 70 23 194 78 198 88 2 5 8 8 13 8 6 0 15 5 22 10 99 86 152 149 192 230 l28 55 21 -45 c12 -25 23 -47 26 -50 3 -3 24 -30 47 -60 23 -31 59 -69 79 -85 20 -17 42 -36 49 -42 8 -7 18 -13 24 -13 6 0 11 -4 11 -10 0 -5 4 -10 9 -10 5 0 42 -15 83 -34 142 -66 374 -79 548 -30 93 26 214 96 279 162 66 67 101 109 101 121 0 4 8 19 19 32 10 13 21 33 23 44 3 16 10 9 29 -30 13 -27 27 -51 32 -53 4 -2 7 -8 7 -13 0 -20 85 -107 147 -151 26 -18 50 -36 53 -39 22 -27 192 -79 295 -91 110 -12 270 3 360 34 46 16 160 72 163 81 2 4 8 7 14 7 5 0 16 6 23 13 73 66 126 123 151 159 16 24 34 49 41 55 6 7 17 30 23 50 7 21 17 44 23 51 7 9 382 12 1811 12 1709 1 1805 2 1886 19 111 24 195 48 239 68 60 27 224 108 236 116 5 4 44 31 85 61 67 48 169 144 230 216 91 109 179 302 205 454 36 210 11 468 -61 633 -8 17 -14 35 -14 41 0 5 -32 58 -72 118 -93 140 -211 260 -328 334 -30 19 -57 37 -60 40 -14 14 -167 82 -259 115 -226 81 -64 75 -2093 75 -1374 0 -1808 3 -1808 12 0 16 -63 152 -72 156 -5 2 -8 8 -8 13 0 23 -137 159 -160 159 -6 0 -10 5 -10 10 0 6 -6 10 -14 10 -7 0 -19 6 -25 14 -7 8 -56 29 -109 47 -95 33 -100 33 -272 33 -165 0 -180 -1 -260 -28 -103 -34 -195 -91 -275 -171 -59 -58 -80 -87 -124 -170 -12 -22 -21 -32 -21 -23 0 18 -62 127 -95 168 -40 48 -120 120 -135 120 -5 0 -10 3 -12 8 -4 10 -124 67 -183 87 -35 12 -95 18 -205 21 -144 4 -161 3 -240 -21z m333 -81 c241 -54 416 -222 479 -458 10 -38 18 -78 18 -88 0 -16 6 -19 35 -16 36 3 36 3 68 99 41 122 85 196 168 279 110 111 295 190 443 190 233 -1 457 -139 555 -342 23 -46 41 -92 41 -101 0 -16 123 -17 1806 -17 1780 0 1807 0 1906 -20 285 -58 510 -172 683 -345 93 -94 154 -180 210 -296 72 -154 90 -231 90 -394 0 -167 -18 -243 -94 -400 -154 -315 -447 -529 -866 -631 l-100 -24 -1815 0 -1815 0 -40 -88 c-33 -74 -52 -100 -125 -172 -125 -126 -254 -186 -421 -197 -305 -21 -579 190 -637 490 l-17 87 -32 0 c-27 0 -34 -4 -39 -27 -35 -165 -93 -282 -185 -372 -77 -77 -148 -122 -251 -159 -63 -23 -89 -26 -188 -27 -101 0 -125 4 -197 28 -220 76 -377 255 -424 485 l-13 62 -36 0 -36 0 -13 -72 c-41 -233 -231 -432 -471 -495 -302 -79 -642 114 -740 420 l-12 37 -1816 0 c-1765 0 -1820 1 -1910 20 -410 86 -718 310 -874 636 -91 191 -118 374 -80 555 90 434 445 758 959 874 l108 25 1810 1 1810 0 37 77 c107 224 343 374 588 375 167 1 304 -56 425 -178 95 -95 140 -178 164 -303 l16 -83 33 3 c33 3 34 5 63 93 78 246 261 417 504 470 82 18 143 18 228 -1z"></path><path id="pyuaPgDRz" d="M6913 24525 c-86 -24 -154 -64 -224 -134 -73 -74 -125 -160 -169 -280 l-30 -82 0 -937 c0 -1046 -4 -989 71 -1132 75 -146 231 -263 384 -291 76 -14 246 -5 303 16 167 60 281 179 342 356 l30 84 0 966 c0 1072 4 1004 -68 1144 -74 142 -236 268 -381 295 -75 14 -196 11 -258 -5z m207 -86 c187 -43 352 -216 405 -424 23 -89 23 -1751 0 -1840 -56 -220 -211 -381 -402 -417 -205 -38 -449 139 -523 381 -19 61 -20 97 -20 947 l0 883 29 81 c72 197 195 332 349 381 66 21 99 23 162 8z"></path><path id="ph1jRkKOm" d="M8245 24526 c-173 -42 -327 -208 -404 -434 -21 -61 -21 -71 -21 -1000 0 -1046 -4 -989 71 -1133 95 -183 256 -285 466 -296 265 -14 457 108 557 355 l31 77 3 979 c3 1089 7 1020 -66 1161 -45 87 -153 197 -238 242 -111 59 -276 79 -399 49z m214 -91 c144 -38 278 -149 344 -285 70 -142 67 -101 67 -1055 0 -839 -1 -862 -21 -935 -60 -217 -207 -367 -396 -402 -79 -14 -152 -1 -249 47 -132 65 -234 194 -281 359 l-23 78 0 834 c0 583 3 849 11 886 16 75 68 194 116 263 70 104 158 173 261 206 70 22 102 23 171 4z"></path><path id="pwfGQm1vq" d="M9575 24526 c-174 -42 -329 -209 -404 -433 -21 -62 -21 -75 -21 -1010 l0 -948 29 -81 c83 -241 264 -379 511 -391 240 -11 414 84 517 283 77 147 73 86 73 1149 0 821 -2 959 -15 1009 -52 200 -226 376 -416 421 -76 17 -204 18 -274 1z m214 -91 c88 -23 162 -66 232 -135 79 -78 132 -170 159 -275 19 -75 20 -111 20 -930 0 -815 -1 -855 -20 -929 -55 -216 -208 -373 -397 -408 -176 -33 -388 92 -483 285 -73 150 -70 104 -70 1052 l0 850 29 81 c41 119 96 210 170 285 69 69 125 103 201 125 60 17 95 16 159 -1z"></path><path id="p2blMneJY" d="M2618 23710 c-247 -42 -425 -178 -505 -387 -35 -93 -44 -287 -18 -396 52 -219 221 -386 450 -444 66 -17 177 -18 1980 -18 l1910 0 3 628 2 627 -1887 -1 c-1039 -1 -1909 -5 -1935 -9z m3732 -620 l0 -540 -1847 2 -1848 3 -70 24 c-119 40 -186 79 -256 151 -132 134 -186 312 -144 473 44 168 160 299 326 369 140 59 48 56 2022 57 l1817 1 0 -540z"></path><path id="pN5nkRds2" d="M10337 23098 c0 -343 2 -626 2 -630 2 -12 3606 -10 3737 2 172 15 282 55 399 143 94 71 169 185 200 304 20 75 19 268 0 352 -38 161 -155 305 -306 380 -153 75 -7 71 -2129 71 l-1905 0 2 -622z m3823 516 c169 -39 314 -151 383 -295 44 -91 57 -143 57 -234 0 -119 -56 -248 -147 -339 -104 -106 -238 -166 -411 -186 -55 -6 -742 -10 -1854 -10 l-1768 0 0 540 0 540 1838 0 c1613 0 1845 -2 1902 -16z"></path><path id="pW8wriyA1" d="M7880 19693 l0 -781 -24 -16 c-14 -8 -35 -26 -48 -38 -13 -13 -41 -36 -62 -53 -21 -16 -44 -35 -51 -42 -12 -11 -82 -71 -121 -104 -11 -8 -40 -33 -65 -55 -26 -21 -55 -46 -65 -55 -11 -8 -40 -33 -65 -55 -25 -21 -62 -52 -83 -69 -20 -16 -54 -45 -74 -64 -20 -18 -52 -45 -71 -60 -19 -14 -49 -39 -65 -54 -17 -16 -46 -41 -65 -55 -19 -15 -49 -40 -65 -55 -17 -16 -47 -41 -66 -55 -19 -15 -37 -30 -40 -33 -6 -7 -81 -71 -134 -114 -20 -16 -54 -45 -74 -64 -20 -18 -52 -45 -71 -60 -19 -14 -49 -39 -65 -54 -17 -16 -46 -41 -65 -55 -19 -15 -49 -40 -65 -55 -17 -16 -47 -41 -66 -55 -19 -15 -37 -30 -40 -33 -6 -7 -81 -71 -134 -114 -20 -16 -54 -45 -74 -64 -20 -18 -52 -45 -71 -60 -19 -14 -49 -39 -65 -54 -17 -16 -47 -41 -66 -55 -19 -15 -37 -30 -40 -33 -6 -7 -83 -73 -134 -114 -21 -16 -50 -41 -65 -55 -15 -14 -44 -38 -65 -55 -21 -16 -44 -35 -51 -42 -12 -11 -82 -71 -121 -104 -11 -8 -40 -33 -65 -55 -26 -21 -55 -46 -65 -55 -11 -8 -40 -33 -65 -55 -25 -21 -62 -52 -83 -69 -20 -16 -52 -44 -71 -61 l-35 -32 0 -6861 0 -6861 170 0 170 0 0 4058 0 4057 56 45 c30 25 65 54 78 65 12 11 42 36 65 55 23 19 55 46 70 60 60 54 145 126 163 138 10 8 29 23 41 35 13 12 40 36 61 52 20 17 50 41 65 55 31 28 88 77 117 101 10 8 40 33 65 55 25 21 65 55 88 74 24 19 53 44 66 55 12 11 38 34 58 50 19 17 60 53 92 80 32 28 66 56 77 63 10 8 29 23 41 35 13 12 40 36 61 52 20 17 50 41 65 55 31 28 88 77 117 101 10 8 40 33 65 55 25 21 65 55 88 74 24 19 53 44 66 55 12 11 38 34 58 50 19 17 60 53 92 80 32 28 66 56 77 63 10 8 29 23 41 35 13 12 40 36 61 52 20 17 50 41 65 55 31 28 88 77 117 101 10 8 40 33 65 55 25 21 65 55 88 74 24 19 53 44 66 55 12 11 38 34 58 50 19 17 60 53 92 80 32 28 66 56 77 63 10 8 29 23 41 35 13 12 40 36 61 52 20 17 50 41 65 55 16 14 45 39 65 57 l36 32 0 3566 0 3565 -122 0 c-68 0 -147 3 -175 6 l-53 7 0 -780z m-17 -6204 c-16 -15 -588 -500 -1273 -1079 l-1245 -1051 -3 2468 -2 2468 22 22 c13 12 586 497 1273 1077 l1250 1056 3 -2467 2 -2468 -27 -26z"></path><path id="p17kywa9Yf" d="M8540 16897 l0 -3564 28 -25 c46 -44 89 -82 128 -113 21 -16 48 -40 61 -52 12 -12 31 -27 41 -35 20 -14 121 -99 157 -133 12 -11 37 -32 56 -47 19 -14 49 -40 66 -57 18 -16 41 -36 51 -43 11 -7 45 -35 77 -63 32 -27 73 -63 93 -80 19 -16 47 -41 63 -55 15 -14 45 -38 65 -55 21 -16 48 -40 61 -52 12 -12 31 -27 41 -35 11 -7 45 -35 77 -63 32 -27 73 -63 92 -80 20 -16 46 -39 58 -50 13 -11 42 -36 66 -55 23 -19 63 -53 88 -74 25 -22 55 -47 65 -55 29 -24 86 -73 117 -101 15 -14 45 -38 65 -55 21 -16 48 -40 61 -52 12 -12 31 -27 41 -35 11 -7 45 -35 77 -63 32 -27 73 -63 92 -80 20 -16 46 -39 58 -50 13 -11 42 -36 66 -55 23 -19 63 -53 88 -74 25 -22 55 -47 65 -55 29 -24 86 -73 117 -101 15 -14 45 -38 65 -55 21 -16 48 -40 61 -52 12 -12 31 -27 41 -35 11 -7 45 -35 77 -63 32 -27 73 -63 92 -80 20 -16 46 -39 58 -50 13 -11 42 -36 66 -55 86 -71 134 -113 141 -124 4 -6 8 -1893 8 -4193 l0 -4183 170 0 170 0 2 6993 c3 5978 1 6993 -11 7001 -8 5 -26 20 -42 35 -15 14 -44 40 -65 56 -20 17 -58 48 -83 69 -25 22 -55 47 -65 55 -11 9 -32 27 -47 41 -15 14 -44 39 -65 55 -85 69 -120 98 -135 114 -9 9 -34 30 -55 46 -21 17 -50 41 -65 55 -15 14 -44 39 -65 55 -20 17 -58 48 -83 69 -25 22 -55 47 -65 55 -11 9 -32 27 -47 41 -15 14 -44 39 -65 55 -85 69 -120 98 -135 114 -9 9 -34 30 -54 46 -21 17 -59 48 -84 69 -25 22 -55 47 -65 55 -11 9 -32 27 -47 41 -15 14 -44 39 -65 55 -41 33 -120 100 -139 118 -7 7 -30 26 -51 42 -21 17 -50 41 -65 55 -15 14 -44 39 -65 55 -20 17 -58 48 -83 69 -25 22 -55 47 -65 55 -11 9 -32 27 -47 41 -15 14 -44 39 -65 55 -41 33 -120 100 -139 118 -7 7 -30 26 -51 42 -21 17 -50 41 -65 55 -15 14 -44 39 -65 55 -20 17 -58 48 -83 69 -25 22 -55 47 -65 55 -11 9 -32 27 -47 41 -15 14 -44 39 -65 55 -85 69 -120 98 -135 114 -9 9 -34 30 -55 46 -21 17 -54 45 -73 63 -19 17 -39 32 -43 32 -4 0 -8 349 -8 775 l0 775 -175 0 -175 0 0 -3563z m1639 463 l1250 -1055 0 -2474 c1 -2355 0 -2473 -16 -2459 -10 8 -584 493 -1275 1077 l-1258 1062 0 2470 0 2471 25 -19 c13 -10 587 -493 1274 -1073z"></path><path id="pLawKLPRG" d="M2870 9360 l0 -7340 170 0 170 0 0 7288 c0 4008 3 7311 6 7340 l7 52 -177 0 -176 0 0 -7340z"></path><path id="paxG2PFkn" d="M13560 9360 l0 -7340 170 0 170 0 0 7340 0 7340 -170 0 -170 0 0 -7340z"></path><path id="pKp63mKYF" d="M8134 12498 c-16 -13 -33 -28 -39 -34 -10 -11 -142 -129 -254 -224 -29 -25 -65 -56 -80 -70 -15 -14 -51 -45 -80 -70 -29 -25 -65 -56 -80 -70 -15 -14 -51 -45 -80 -70 -29 -25 -61 -52 -70 -61 -18 -18 -176 -158 -260 -229 -29 -25 -65 -56 -80 -70 -15 -14 -51 -45 -80 -70 -29 -25 -65 -56 -80 -70 -15 -14 -51 -45 -80 -70 -29 -25 -61 -52 -70 -61 -18 -18 -176 -158 -260 -229 -29 -25 -65 -56 -80 -70 -15 -14 -51 -45 -80 -70 -29 -25 -65 -56 -80 -70 -15 -14 -51 -45 -80 -70 -29 -25 -61 -52 -70 -61 -9 -9 -61 -56 -116 -104 -55 -48 -116 -101 -136 -119 -19 -17 -59 -51 -88 -76 -29 -25 -65 -56 -80 -70 -15 -14 -53 -47 -84 -74 l-57 -50 0 -4343 0 -4343 145 0 145 0 0 1144 0 1144 40 32 c23 18 53 44 68 59 15 14 51 46 80 71 29 25 68 59 85 75 18 17 56 50 85 75 29 25 68 59 85 75 18 17 56 50 85 75 29 25 68 59 86 75 57 53 121 109 175 155 28 25 67 59 85 75 69 64 187 168 212 188 15 11 36 30 49 41 33 32 105 95 169 151 32 28 70 61 85 75 78 70 122 109 170 150 28 25 67 59 84 75 18 17 56 50 85 75 29 25 68 59 85 75 18 17 59 53 91 80 32 28 70 61 85 75 78 70 122 109 170 150 50 43 88 77 159 143 l32 30 0 3288 0 3289 -34 0 c-19 0 -45 -9 -62 -22z m-194 -3497 l0 -2798 -1027 -901 -1028 -901 -3 2797 -2 2797 32 31 c42 41 2020 1774 2024 1774 2 0 4 -1259 4 -2799z"></path><path id="p44q33eDZ" d="M8540 9232 c0 -3212 0 -3289 19 -3308 10 -10 43 -39 72 -64 53 -45 114 -99 175 -155 18 -16 57 -50 86 -75 29 -25 67 -58 85 -75 17 -16 56 -50 85 -75 29 -25 67 -58 85 -75 17 -16 56 -50 84 -75 54 -46 118 -102 175 -155 18 -16 57 -50 86 -75 29 -25 67 -58 85 -75 17 -16 56 -50 85 -75 29 -25 67 -58 85 -75 17 -16 56 -50 84 -75 48 -41 92 -80 170 -150 15 -14 53 -47 85 -75 32 -27 73 -63 91 -80 17 -16 56 -50 85 -75 29 -25 67 -58 85 -75 17 -16 56 -50 84 -75 48 -41 92 -80 170 -150 15 -14 53 -47 85 -75 32 -27 76 -67 98 -87 23 -20 52 -46 66 -56 l25 -20 5 -1169 5 -1168 148 -3 147 -3 0 4371 c0 2403 -4 4370 -8 4370 -4 0 -27 17 -50 38 -23 20 -65 57 -94 82 -63 54 -139 122 -249 220 -15 14 -51 45 -80 70 -29 25 -65 56 -80 70 -15 14 -51 45 -80 70 -29 25 -65 56 -80 70 -15 14 -51 45 -80 70 -62 53 -135 117 -250 220 -15 14 -51 45 -80 70 -29 25 -65 56 -80 70 -15 14 -51 45 -80 70 -29 25 -65 56 -80 70 -15 14 -51 45 -80 70 -62 53 -135 117 -250 220 -15 14 -51 45 -80 70 -29 25 -65 56 -80 70 -15 14 -51 45 -80 70 -29 25 -65 56 -80 70 -15 14 -52 45 -81 70 -29 25 -65 57 -81 72 -16 15 -36 33 -46 40 -10 7 -53 45 -96 83 -43 39 -96 86 -118 105 -22 19 -59 52 -81 73 -32 29 -49 37 -78 37 l-38 0 0 -3288z m1339 1658 l1010 -885 0 -2803 1 -2804 -39 34 c-21 18 -484 424 -1030 903 l-991 869 0 2799 c0 2772 0 2799 19 2786 11 -8 474 -412 1030 -899z"></path></g></g><g id="l6gvVa7XXz4a1L9vZoA8mF7" fill="rgb(253,7,0)" style="transform: none;"><g style="transform: none;"><path id="pi9KSDesU" d="M2464 23637 c-93 -38 -165 -88 -225 -155 -43 -48 -104 -164 -114 -217 -3 -16 5 -2 19 33 68 170 205 295 386 353 30 10 46 18 35 18 -11 0 -56 -14 -101 -32z"></path><path id="pIXY6Aday" d="M14282 23647 c176 -75 298 -203 355 -371 13 -39 13 -39 8 -7 -11 71 -74 181 -145 251 -67 67 -172 130 -245 145 -16 3 -5 -5 27 -18z"></path><path id="pPsfteLKt" d="M2619 23645 c-294 -59 -479 -274 -479 -555 0 -155 51 -281 159 -390 70 -72 137 -111 256 -151 l70 -24 1877 -3 1878 -2 0 570 0 570 -1847 -1 c-1490 -1 -1861 -3 -1914 -14z"></path><path id="pnYevRPAU" d="M10390 23090 l0 -570 1798 0 c1132 0 1829 4 1884 10 284 33 485 190 548 430 16 57 16 200 1 265 -36 154 -153 302 -292 369 -148 70 -2 66 -2071 66 l-1868 0 0 -570z"></path><path id="puIev6W9e" d="M10365 23095 c0 -226 1 -319 2 -208 2 111 2 295 0 410 -1 114 -2 24 -2 -202z"></path><path id="pO0grgwqb" d="M14663 23095 c0 -33 2 -45 4 -27 2 18 2 45 0 60 -2 15 -4 0 -4 -33z"></path><path id="pYGieJqkj" d="M2126 22920 c3 -19 22 -68 41 -108 58 -123 194 -243 313 -276 14 -4 -9 10 -50 31 -132 67 -248 203 -295 346 -13 39 -14 39 -9 7z"></path><path id="p1m1lCcvO" d="M14641 22930 c-2 -26 -58 -137 -98 -190 -61 -83 -187 -169 -291 -200 -23 -7 -40 -15 -38 -18 10 -9 139 42 193 77 70 46 146 121 178 176 32 54 67 145 61 159 -2 6 -5 4 -5 -4z"></path><path id="pu4u7kf0j" d="M13998 22493 c12 -2 30 -2 40 0 9 3 -1 5 -23 4 -22 0 -30 -2 -17 -4z"></path></g></g><g id="lr0mL1q3isW4eDCva110RK" fill="rgb(51,153,255)" style="transform: none;"><g style="transform: none;"><path id="p1D2SvwFdZ" d="M20 13230 l0 -13220 8510 0 8510 0 0 13220 0 13220 -8510 0 -8510 0 0 -13220z m16320 5 l0 -12535 -7810 0 -7810 0 0 12535 0 12535 7810 0 7810 0 0 -12535z"></path><path id="palPOZWUL" d="M1330 13235 l0 -11915 7200 0 7200 0 0 11915 0 11915 -7200 0 -7200 0 0 -11915z m7220 11430 c14 -3 30 -7 35 -9 53 -13 187 -75 193 -88 2 -5 7 -8 12 -8 15 0 95 -72 135 -120 30 -37 95 -149 95 -164 0 -7 3 -16 8 -20 4 -4 12 -22 19 -39 6 -18 12 -25 12 -16 1 16 42 99 84 169 32 53 134 150 207 197 36 23 103 54 150 69 77 25 99 28 230 28 138 0 150 -2 242 -33 53 -18 102 -39 109 -47 6 -8 18 -14 25 -14 8 0 14 -4 14 -10 0 -5 4 -10 10 -10 23 0 160 -136 160 -159 0 -5 3 -11 8 -13 9 -4 72 -140 72 -156 0 -9 433 -12 1803 -13 991 0 1809 -2 1817 -4 8 -1 31 -5 50 -9 34 -6 60 -11 100 -21 11 -3 28 -7 38 -9 76 -18 331 -124 352 -146 3 -3 30 -21 60 -40 117 -74 235 -194 328 -334 40 -60 72 -113 72 -118 0 -6 6 -24 14 -41 71 -163 94 -379 61 -573 -26 -152 -114 -345 -205 -454 -61 -72 -163 -168 -230 -216 -41 -30 -80 -57 -85 -61 -20 -14 -212 -107 -245 -118 -3 -1 -18 -7 -33 -13 -15 -7 -42 -14 -59 -17 -17 -3 -35 -8 -40 -11 -8 -5 -24 -9 -78 -20 -14 -3 -43 -9 -65 -14 -23 -6 -785 -10 -1841 -10 -1429 0 -1804 -3 -1811 -12 -6 -7 -16 -30 -23 -51 -6 -20 -17 -43 -23 -50 -7 -6 -25 -31 -41 -55 -25 -36 -78 -93 -151 -159 -7 -7 -18 -13 -23 -13 -6 0 -12 -3 -14 -7 -3 -9 -117 -65 -163 -81 -105 -36 -286 -44 -400 -18 -67 16 -183 60 -195 75 -3 3 -27 21 -53 39 -62 44 -147 131 -147 151 0 5 -3 11 -8 13 -7 3 -60 115 -77 163 -5 16 -11 9 -26 -35 -11 -30 -24 -62 -30 -70 -5 -8 -15 -26 -22 -40 -35 -72 -150 -181 -246 -234 -139 -77 -329 -107 -481 -76 -30 6 -64 13 -75 15 -11 3 -49 18 -83 35 -34 16 -67 30 -72 30 -6 0 -10 5 -10 10 0 6 -5 10 -11 10 -6 0 -16 6 -24 13 -7 6 -29 25 -49 42 -20 16 -56 54 -79 85 -23 30 -44 57 -47 60 -9 9 -54 104 -66 140 -11 33 -13 34 -19 12 -32 -100 -110 -222 -189 -294 -61 -56 -64 -58 -75 -58 -5 0 -11 -3 -13 -7 -9 -23 -188 -91 -263 -101 -161 -22 -314 1 -440 65 -92 48 -132 80 -232 188 -7 8 -13 18 -13 23 0 6 -4 12 -8 14 -9 3 -65 117 -77 156 l-6 22 -1807 0 c-1957 0 -1803 -3 -2007 44 -28 6 -154 49 -180 61 -136 63 -149 70 -225 120 -51 34 -59 40 -98 75 -15 14 -41 36 -57 50 -26 21 -65 67 -151 173 -8 9 -14 21 -14 26 0 5 -3 11 -7 13 -11 4 -40 54 -64 108 -11 25 -24 54 -29 65 -10 22 -39 119 -45 150 -56 285 -11 544 132 769 47 73 55 84 83 115 14 15 37 40 51 57 34 39 97 93 142 124 20 14 37 28 37 33 0 4 6 7 14 7 8 0 16 3 18 8 4 9 87 56 168 93 101 47 252 97 360 119 96 20 138 20 1892 20 l1793 0 30 65 c17 36 33 65 38 65 4 0 7 5 7 10 0 13 9 24 76 94 142 148 308 219 519 220 130 1 161 -5 277 -47 37 -14 75 -32 83 -41 9 -9 20 -16 25 -16 30 0 188 -176 216 -240 37 -85 44 -102 45 -118 0 -12 4 -9 11 8 21 49 63 135 68 140 3 3 22 28 43 56 34 47 68 82 138 139 44 36 144 84 229 109 73 21 101 24 200 21 63 -1 126 -6 140 -10z m-350 -7771 l0 -3535 -36 -32 c-20 -18 -49 -43 -65 -57 -15 -14 -45 -38 -65 -55 -21 -16 -48 -40 -61 -52 -12 -12 -31 -27 -41 -35 -11 -7 -45 -35 -77 -63 -32 -27 -73 -63 -92 -80 -20 -16 -46 -39 -58 -50 -13 -11 -42 -36 -66 -55 -23 -19 -63 -53 -88 -74 -25 -22 -55 -47 -65 -55 -29 -24 -86 -73 -117 -101 -15 -14 -45 -38 -65 -55 -21 -16 -48 -40 -61 -52 -12 -12 -31 -27 -41 -35 -11 -7 -45 -35 -77 -63 -32 -27 -73 -63 -92 -80 -20 -16 -46 -39 -58 -50 -13 -11 -42 -36 -66 -55 -23 -19 -63 -53 -88 -74 -25 -22 -55 -47 -65 -55 -29 -24 -86 -73 -117 -101 -15 -14 -45 -38 -65 -55 -21 -16 -48 -40 -61 -52 -12 -12 -31 -27 -41 -35 -11 -7 -45 -35 -77 -63 -32 -27 -73 -63 -92 -80 -20 -16 -46 -39 -58 -50 -13 -11 -42 -36 -66 -55 -23 -19 -63 -53 -88 -74 -25 -22 -55 -47 -65 -55 -29 -24 -86 -73 -117 -101 -15 -14 -45 -38 -65 -55 -21 -16 -48 -40 -61 -52 -12 -12 -31 -27 -41 -35 -18 -12 -103 -84 -163 -138 -15 -14 -47 -41 -70 -60 -23 -19 -53 -44 -65 -55 -13 -11 -48 -40 -78 -65 l-56 -45 0 -4057 0 -4058 -140 0 -140 0 0 6831 0 6831 35 32 c19 17 51 45 71 61 21 17 58 48 83 69 25 22 54 47 65 55 10 9 39 34 65 55 25 22 54 47 65 55 39 33 109 93 121 104 7 7 30 26 51 42 21 17 50 41 65 55 15 14 44 39 65 55 51 41 128 107 134 114 3 3 21 18 40 33 19 14 49 39 66 55 16 15 46 40 65 54 19 15 51 42 71 60 20 19 54 48 74 64 53 43 128 107 134 114 3 3 21 18 40 33 19 14 49 39 66 55 16 15 46 40 65 55 19 14 48 39 65 55 16 15 46 40 65 54 19 15 51 42 71 60 20 19 54 48 74 64 53 43 128 107 134 114 3 3 21 18 40 33 19 14 49 39 66 55 16 15 46 40 65 55 19 14 48 39 65 55 16 15 46 40 65 54 19 15 51 42 71 60 20 19 54 48 74 64 21 17 58 48 83 69 25 22 54 47 65 55 10 9 39 34 65 55 25 22 54 47 65 55 39 33 109 93 121 104 7 7 30 26 51 42 21 17 49 40 62 53 13 12 34 30 48 38 l24 16 0 777 0 776 145 -3 145 -3 0 -3535z m660 2761 c0 -426 4 -775 8 -775 4 0 24 -15 43 -32 19 -18 52 -46 73 -63 21 -16 46 -37 55 -46 15 -16 50 -45 135 -114 21 -16 50 -41 65 -55 15 -14 36 -32 47 -41 10 -8 40 -33 65 -55 25 -21 63 -52 83 -69 21 -16 50 -41 65 -55 15 -14 44 -38 65 -55 21 -16 44 -35 51 -42 19 -18 98 -85 139 -118 21 -16 50 -41 65 -55 15 -14 36 -32 47 -41 10 -8 40 -33 65 -55 25 -21 63 -52 83 -69 21 -16 50 -41 65 -55 15 -14 44 -38 65 -55 21 -16 44 -35 51 -42 19 -18 98 -85 139 -118 21 -16 50 -41 65 -55 15 -14 36 -32 47 -41 10 -8 40 -33 65 -55 25 -21 63 -52 84 -69 20 -16 45 -37 54 -46 15 -16 50 -45 135 -114 21 -16 50 -41 65 -55 15 -14 36 -32 47 -41 10 -8 40 -33 65 -55 25 -21 63 -52 83 -69 21 -16 50 -41 65 -55 15 -14 44 -38 65 -55 21 -16 46 -37 55 -46 15 -16 50 -45 135 -114 21 -16 50 -41 65 -55 15 -14 36 -32 47 -41 10 -8 40 -33 65 -55 25 -21 62 -52 83 -69 20 -16 53 -45 73 -62 19 -18 38 -33 42 -33 3 0 5 -3134 3 -6965 l-2 -6965 -140 0 -140 0 0 4183 c0 2300 -4 4187 -8 4193 -7 11 -55 53 -141 124 -24 19 -53 44 -66 55 -12 11 -38 34 -58 50 -19 17 -60 53 -92 80 -32 28 -66 56 -77 63 -10 8 -29 23 -41 35 -13 12 -40 36 -61 52 -20 17 -50 41 -65 55 -31 28 -88 77 -117 101 -10 8 -40 33 -65 55 -25 21 -65 55 -88 74 -24 19 -53 44 -66 55 -12 11 -38 34 -58 50 -19 17 -60 53 -92 80 -32 28 -66 56 -77 63 -10 8 -29 23 -41 35 -13 12 -40 36 -61 52 -20 17 -50 41 -65 55 -31 28 -88 77 -117 101 -10 8 -40 33 -65 55 -25 21 -65 55 -88 74 -24 19 -53 44 -66 55 -12 11 -38 34 -58 50 -19 17 -60 53 -92 80 -32 28 -66 56 -77 63 -10 8 -29 23 -41 35 -13 12 -40 36 -61 52 -20 17 -50 41 -65 55 -16 14 -44 39 -63 55 -20 17 -61 53 -93 80 -32 28 -66 56 -77 63 -10 7 -33 27 -51 43 -17 17 -47 43 -66 57 -19 15 -44 36 -56 47 -36 34 -137 119 -157 133 -10 8 -29 23 -41 35 -13 12 -40 36 -61 52 -39 31 -82 69 -128 113 l-28 25 0 3534 0 3533 145 0 145 0 0 -775z m-5678 -10295 l-2 -7310 -140 0 -140 0 0 7310 0 7310 143 0 142 0 -3 -7310z m10688 0 l0 -7310 -140 0 -140 0 0 7310 0 7310 140 0 140 0 0 -7310z m-5670 -129 l0 -3258 -32 -30 c-71 -66 -109 -100 -159 -143 -48 -41 -92 -80 -170 -150 -15 -14 -53 -47 -85 -75 -32 -27 -73 -63 -91 -80 -17 -16 -56 -50 -85 -75 -29 -25 -67 -58 -85 -75 -17 -16 -56 -50 -84 -75 -48 -41 -92 -80 -170 -150 -15 -14 -53 -47 -85 -75 -64 -56 -136 -119 -169 -151 -13 -11 -34 -30 -49 -41 -25 -20 -143 -124 -212 -188 -18 -16 -57 -50 -85 -75 -54 -46 -118 -102 -175 -155 -18 -16 -57 -50 -86 -75 -29 -25 -67 -58 -85 -75 -17 -16 -56 -50 -85 -75 -29 -25 -67 -58 -85 -75 -17 -16 -56 -50 -85 -75 -29 -25 -65 -57 -80 -71 -15 -15 -45 -41 -68 -59 l-40 -32 0 -1144 0 -1144 -115 0 -115 0 0 4313 0 4313 57 50 c31 27 69 60 84 74 15 14 51 45 80 70 29 25 69 59 88 76 20 18 81 71 136 119 55 48 107 95 116 104 9 9 41 36 70 61 29 25 65 56 80 70 15 14 51 45 80 70 29 25 65 56 80 70 15 14 51 45 80 70 84 71 242 211 260 229 9 9 41 36 70 61 29 25 65 56 80 70 15 14 51 45 80 70 29 25 65 56 80 70 15 14 51 45 80 70 84 71 242 211 260 229 9 9 41 36 70 61 29 25 65 56 80 70 15 14 51 45 80 70 29 25 65 56 80 70 15 14 51 45 80 70 112 95 244 213 254 224 11 13 66 56 71 56 2 0 4 -1466 4 -3259z m426 3222 c22 -21 59 -54 81 -73 22 -19 75 -66 118 -105 43 -38 86 -76 96 -83 10 -7 30 -25 46 -40 16 -15 52 -47 81 -72 29 -25 66 -56 81 -70 15 -14 51 -45 80 -70 29 -25 65 -56 80 -70 15 -14 51 -45 80 -70 29 -25 65 -56 80 -70 115 -103 188 -167 250 -220 29 -25 65 -56 80 -70 15 -14 51 -45 80 -70 29 -25 65 -56 80 -70 15 -14 51 -45 80 -70 29 -25 65 -56 80 -70 115 -103 188 -167 250 -220 29 -25 65 -56 80 -70 15 -14 51 -45 80 -70 29 -25 65 -56 80 -70 15 -14 51 -45 80 -70 29 -25 65 -56 80 -70 110 -98 186 -166 249 -220 29 -25 71 -62 94 -82 23 -21 46 -38 50 -38 4 0 8 -1953 8 -4340 l0 -4341 -117 3 -118 3 0 1160 0 1160 -26 25 c-35 33 -102 94 -173 155 -32 28 -70 61 -85 75 -78 70 -122 109 -170 150 -28 25 -67 59 -84 75 -18 17 -56 50 -85 75 -29 25 -68 59 -85 75 -18 17 -59 53 -91 80 -32 28 -70 61 -85 75 -78 70 -122 109 -170 150 -28 25 -67 59 -84 75 -18 17 -56 50 -85 75 -29 25 -68 59 -85 75 -18 17 -56 50 -85 75 -29 25 -68 59 -86 75 -57 53 -121 109 -175 155 -28 25 -67 59 -84 75 -18 17 -56 50 -85 75 -29 25 -68 59 -85 75 -18 17 -56 50 -85 75 -29 25 -68 59 -86 75 -61 56 -122 110 -175 155 -29 25 -62 54 -72 64 -19 19 -19 95 -19 3278 0 1792 3 3258 8 3258 4 0 26 -17 48 -37z"></path><path id="pAM0UnUoc" d="M8255 24635 c-239 -52 -424 -223 -500 -459 -15 -44 -29 -88 -32 -96 -3 -8 -13 23 -23 70 -26 129 -71 211 -165 305 -86 87 -158 129 -277 162 -87 24 -260 24 -355 0 -190 -49 -358 -185 -441 -359 l-37 -77 -1810 0 -1810 -1 -108 -25 c-514 -116 -869 -440 -959 -874 -26 -124 -21 -316 11 -435 46 -172 170 -379 298 -496 172 -157 393 -267 645 -320 90 -19 145 -20 1910 -20 l1816 0 12 -37 c64 -199 241 -365 450 -420 88 -23 263 -23 350 0 184 49 341 176 418 337 23 48 46 116 53 158 7 39 16 72 19 72 3 0 12 -28 19 -62 47 -230 204 -409 424 -485 75 -26 94 -28 227 -28 132 0 152 3 218 27 103 37 175 82 251 159 92 91 146 199 186 374 6 25 10 16 26 -60 39 -190 152 -341 316 -423 117 -58 208 -76 352 -69 195 9 316 62 451 197 73 72 92 98 125 172 l40 88 1815 0 1815 0 100 24 c274 67 473 169 642 329 102 97 165 182 224 302 80 164 94 230 94 430 0 197 -14 262 -90 424 -158 332 -467 554 -893 641 -99 20 -126 20 -1906 20 -1683 0 -1806 1 -1806 17 0 9 -18 55 -41 101 -154 319 -570 438 -911 260 -94 -49 -194 -142 -248 -233 -19 -33 -49 -101 -67 -153 -33 -98 -43 -119 -43 -85 0 10 -8 51 -18 89 -63 236 -238 404 -479 458 -85 19 -205 20 -288 1z m-1114 -135 c145 -27 307 -153 381 -295 72 -139 68 -75 68 -1114 l0 -936 -30 -84 c-76 -221 -243 -359 -455 -377 -205 -18 -414 102 -514 296 -74 142 -71 89 -71 1102 l0 907 30 82 c44 120 96 206 169 280 122 122 263 169 422 139z m1348 -5 c188 -45 357 -214 415 -416 15 -50 16 -156 14 -1005 l-3 -949 -31 -77 c-96 -236 -297 -372 -525 -355 -186 14 -349 124 -438 296 -74 143 -71 90 -71 1103 0 898 0 909 21 970 110 325 353 495 618 433z m1330 0 c190 -45 364 -221 416 -421 23 -88 23 -1870 0 -1958 -40 -151 -150 -299 -271 -363 -293 -156 -639 -4 -755 331 l-29 81 0 918 c0 904 0 919 21 980 109 324 353 494 618 432z m-3411 -1402 l-3 -598 -1880 0 c-1774 0 -1884 1 -1950 18 -229 59 -398 225 -450 445 -25 101 -17 241 19 335 78 208 257 345 504 387 26 4 883 8 1905 9 l1857 1 -2 -597z m7777 582 c223 -47 409 -223 460 -436 19 -82 19 -219 0 -292 -31 -119 -106 -233 -200 -304 -117 -88 -227 -128 -399 -143 -131 -12 -3676 -14 -3677 -2 0 4 -1 274 -2 600 l-2 592 1875 0 c1608 0 1885 -2 1945 -15z"></path><path id="p1AHl50ADV" d="M6899 24451 c-138 -54 -252 -187 -320 -371 -16 -44 -29 -86 -29 -93 1 -7 14 23 30 66 75 203 184 330 337 393 32 13 51 23 43 23 -8 0 -36 -8 -61 -18z"></path><path id="pTRNs4jqA" d="M7192 24447 c170 -72 292 -208 349 -387 10 -30 18 -47 18 -38 1 29 -44 145 -80 204 -63 105 -210 217 -314 239 -16 3 -4 -5 27 -18z"></path><path id="pQfxcdYf6" d="M7565 23095 c0 -500 1 -704 2 -452 2 252 2 662 0 910 -1 249 -2 43 -2 -458z"></path><path id="pTt8hfwzt" d="M7531 22102 c-31 -95 -107 -210 -175 -264 -45 -36 -74 -52 -176 -97 -24 -11 -24 -11 5 -6 110 21 244 130 306 250 38 73 73 169 67 184 -2 5 -14 -25 -27 -67z"></path><path id="pFJKCEpvH" d="M6565 22125 c12 -64 77 -177 142 -246 66 -70 166 -130 238 -144 21 -4 16 0 -16 13 -172 71 -283 187 -355 369 -12 33 -14 34 -9 8z"></path><path id="p1Gy5zM9JX" d="M8192 24434 c-68 -34 -144 -103 -194 -178 -44 -64 -111 -212 -105 -230 2 -6 11 12 20 39 50 146 169 297 284 358 78 42 73 50 -5 11z"></path><path id="pcE7qWfYU" d="M8570 24423 c136 -67 251 -207 301 -363 10 -30 18 -47 18 -38 1 26 -42 140 -74 194 -44 75 -152 177 -228 213 -91 44 -105 39 -17 -6z"></path><path id="pFzHOxE8K" d="M8892 23109 c-1 -493 -4 -912 -7 -930 l-5 -34 10 32 c7 20 9 350 7 930 l-2 898 -3 -896z"></path><path id="pBbCwJuOt" d="M7873 23085 c0 -484 2 -890 5 -903 6 -21 5 1219 -1 1613 -1 94 -3 -226 -4 -710z"></path><path id="pO9zfXAfb" d="M7895 22125 c11 -63 86 -193 147 -254 60 -61 168 -124 233 -136 17 -3 5 4 -25 16 -162 64 -274 183 -346 366 -12 33 -14 34 -9 8z"></path><path id="pboi1gXoD" d="M8852 22075 c-55 -153 -184 -280 -336 -331 -40 -14 -40 -14 -6 -9 61 9 160 65 219 124 55 55 116 156 141 234 20 64 6 50 -18 -18z"></path><path id="p1GFQV0c7D" d="M9515 24433 c-69 -36 -174 -144 -220 -227 -21 -38 -51 -105 -66 -150 l-29 -81 2 -890 3 -890 5 905 5 905 23 55 c77 181 172 301 289 363 37 20 61 36 53 36 -8 0 -37 -12 -65 -26z"></path><path id="p4lhjGe9m" d="M9897 24425 c128 -64 226 -173 290 -322 13 -32 22 -45 18 -28 -13 69 -80 180 -150 250 -64 65 -177 135 -215 135 -7 0 19 -16 57 -35z"></path><path id="pnGxzwPBD" d="M10225 23095 c0 -495 1 -696 2 -447 2 250 2 655 0 900 -1 246 -2 42 -2 -453z"></path><path id="p6syw7uz9" d="M9210 22179 c0 -9 9 -41 20 -73 53 -154 148 -270 273 -330 40 -20 86 -38 102 -41 17 -3 5 4 -25 16 -166 66 -281 188 -341 363 -16 44 -29 74 -29 65z"></path><path id="p19uQ6qQtV" d="M10200 22128 c0 -9 -21 -57 -46 -107 -69 -139 -163 -224 -299 -274 -41 -15 -43 -17 -15 -13 110 18 249 131 312 253 40 76 63 141 54 150 -3 4 -6 -1 -6 -9z"></path></g></g><g id="l4aVq076iZxVGOGZPDSrVTO" fill="rgb(255,214,91)" style="transform: none;"><g style="transform: none;"><path id="paov5r7a6" d="M6928 24461 c-154 -49 -277 -184 -349 -381 l-29 -81 0 -913 c0 -880 1 -916 20 -977 40 -131 150 -269 260 -328 253 -135 542 -40 669 221 74 152 71 99 71 1093 0 987 3 942 -67 1085 -66 137 -213 257 -353 289 -67 16 -158 12 -222 -8z"></path><path id="pFxdUAHAh" d="M8258 24461 c-103 -33 -191 -102 -261 -206 -48 -69 -100 -188 -116 -263 -8 -37 -11 -310 -11 -916 l0 -864 23 -78 c72 -251 270 -414 502 -414 229 0 414 157 484 410 21 73 21 96 21 965 0 987 3 942 -67 1085 -45 92 -152 203 -234 244 -119 58 -236 70 -341 37z"></path><path id="pEIA2LUml" d="M9600 24466 c-76 -22 -132 -56 -201 -125 -74 -75 -129 -166 -170 -285 l-29 -81 0 -880 c0 -982 -3 -932 70 -1082 108 -220 349 -337 575 -278 176 46 313 197 365 401 19 74 20 114 20 959 0 849 -1 885 -20 960 -51 199 -205 361 -391 410 -65 18 -158 18 -219 1z"></path><path id="pNXJgwtMI" d="M6640 17454 c-701 -592 -1287 -1088 -1303 -1103 l-27 -26 2 -2523 3 -2523 1275 1076 c701 592 1287 1089 1303 1104 l27 26 -2 2523 -3 2523 -1275 -1077z"></path><path id="p12xZq1R40" d="M8850 16001 l0 -2520 1288 -1087 c708 -598 1295 -1094 1305 -1102 16 -14 17 106 16 2514 l0 2529 -1292 1090 c-710 600 -1297 1091 -1304 1093 -11 3 -13 -453 -13 -2517z"></path><path id="p17eYRkUJl" d="M6905 10956 l-1050 -922 -3 -2858 c-2 -2762 -1 -2857 16 -2844 10 7 487 424 1060 927 l1042 914 0 2853 c0 1570 -3 2854 -7 2853 -5 0 -480 -416 -1058 -923z"></path><path id="phJDb4Rhi" d="M8800 9028 l0 -2854 1031 -904 c567 -498 1044 -915 1060 -928 l29 -23 -1 2858 0 2858 -1051 920 c-577 506 -1054 922 -1059 923 -5 2 -9 -1174 -9 -2850z"></path></g></g></svg>