<svg xmlns="http://www.w3.org/2000/svg" width="100%" height="500" viewBox="-10 0 450 300" fill="none">
<g transform="matrix(1, 0, 0, 1, 200, 150)" class=""><g vector-effect="non-scaling-stroke" class="" transform="matrix(1, 0, 0, 1, 0, 0)"><g transform="matrix(0.5, 0, 0, 0.5, -0.230017, 112.7)" class="">
<path d="" vector-effect="non-scaling-stroke" transform="matrix(1, 0, 0, 1, -181.86, 13.75)" stroke-linecap="butt" opacity="1" fill="rgb(201, 239, 199)" stroke="none" stroke-width="1px" stroke-linejoin="miter" stroke-miterlimit="4" class=""/>
</g><g transform="matrix(0.26, 0, 0, 0.26, -4.29007, -85.0999)" class="">
<path d="M 288.447 174.158 C 288.447 165.023 281.041 157.617 271.9 157.617 C 262.765 157.617 255.35899999999998 165.023 255.35899999999998 174.158 C 255.35899999999998 183.29299999999998 262.765 190.69899999999998 271.9 190.69899999999998 C 281.041 190.699 288.447 183.293 288.447 174.158 Z" vector-effect="non-scaling-stroke" transform="matrix(1, 0, 0, 1, -271.9, -174.16)" stroke-linecap="butt" opacity="1" fill="rgb(236, 190, 5)" stroke="none" stroke-width="1px" stroke-linejoin="miter" stroke-miterlimit="4" class=""/>
</g><g transform="matrix(0.26, 0, 0, 0.26, -16.07, -33.92)" class="">
<path d="M 150.588 194.877 C 187.514 193.60600000000002 216.963 218.197 237.389 244.30700000000002 C 258.366 271.119 273.78700000000003 304.42400000000004 284.01800000000003 336.463 C 294.72900000000004 369.99600000000004 300.82300000000004 403.231 301.29100000000005 438.557 C 301.71900000000005 470.649 297.06100000000004 509.731 276.61100000000005 537.504 C 275.023 539.654 273.35300000000007 541.7230000000001 271.57200000000006 543.715 C 270.69300000000004 544.6940000000001 269.79100000000005 545.649 268.86500000000007 546.586 C 268.74800000000005 546.703 267.87500000000006 547.688 267.6290000000001 547.676 C 267.4120000000001 547.658 267.19000000000005 547.647 266.97300000000007 547.629 C 265.1980000000001 547.518 263.42800000000005 547.3480000000001 261.66400000000004 547.1080000000001 C 257.97800000000007 546.6160000000001 254.38100000000006 545.8660000000001 250.80100000000004 544.8520000000001 C 243.06700000000004 542.6550000000001 236.08800000000005 539.45 229.37900000000005 535.0260000000001 C 215.50400000000005 525.868 204.95100000000005 512.4730000000001 199.30300000000005 496.8400000000001 C 196.10400000000004 487.9980000000001 194.62100000000007 479.2850000000001 194.70900000000006 469.8870000000001 C 194.77900000000005 461.79500000000013 196.25000000000006 453.9140000000001 197.08800000000005 445.9280000000001 C 198.92200000000005 428.5430000000001 199.92400000000006 411.1760000000001 200.01800000000006 393.6980000000001 C 200.20000000000005 358.74700000000007 196.87700000000007 324.8500000000001 188.96700000000007 290.7370000000001 C 183.21300000000008 265.91100000000006 175.42600000000007 242.2450000000001 164.31100000000006 219.22300000000007 C 161.31100000000006 213.00600000000006 158.10600000000005 206.92400000000006 154.53800000000007 201.01200000000006 C 153.60000000000008 199.46500000000006 152.64000000000007 197.93000000000006 151.64300000000006 196.41800000000006 C 151.38500000000005 196.03100000000006 151.12700000000007 195.64500000000007 150.85800000000006 195.26400000000007 C 150.77 195.135 150.588 194.566 150.588 194.877 Z" vector-effect="non-scaling-stroke" transform="matrix(1, 0, 0, 1, -225.95, -371.23)" stroke-linecap="butt" opacity="1" fill="rgb(59, 140, 71)" stroke="none" stroke-width="1px" stroke-linejoin="miter" stroke-miterlimit="4" class=""/>
</g><g transform="matrix(0.26, 0, 0, 0.26, 9.54, -51.8901)" class="">
<path d="M 318.295 290.115 C 329.135 291.621 335.545 303.047 331.19100000000003 313.084 C 330.927 313.693 330.629 314.285 330.295 314.854 C 330.213 314.995 330.13100000000003 315.12899999999996 330.04900000000004 315.264 C 329.95500000000004 315.41 329.88500000000005 315.205 329.84400000000005 315.106 C 329.72700000000003 314.819 329.61000000000007 314.532 329.487 314.239 C 329.01800000000003 313.09099999999995 328.53200000000004 311.92999999999995 328.04600000000005 310.782 C 327.05000000000007 308.45 326.02500000000003 306.13 324.97600000000006 303.815 C 322.865 299.191 320.645 294.621 318.295 290.115 Z" vector-effect="non-scaling-stroke" transform="matrix(1, 0, 0, 1, -325.43, -302.71)" stroke-linecap="butt" opacity="1" fill="rgb(236, 190, 5)" stroke="none" stroke-width="1px" stroke-linejoin="miter" stroke-miterlimit="4" class=""/>
</g><g transform="matrix(0.26, 0, 0, 0.26, 7.15001, -62.31)" class="">
<path d="M 311.803 278.385 C 320.44 280.658 329.323 275.666 331.871 267.106 C 334.41999999999996 258.551 329.721 249.522 321.25399999999996 246.692 C 312.787 243.868 303.59999999999997 248.274 300.506 256.641 C 300.30699999999996 257.16200000000003 299.39899999999994 259.377 299.873 260.03900000000004 C 300.131 260.3960000000001 300.389 260.74800000000005 300.635 261.105 C 301.145 261.82 301.643 262.535 302.147 263.25 C 303.137 264.68 304.11 266.121 305.07099999999997 267.574 C 307.408 271.125 309.652 274.723 311.803 278.385 Z" vector-effect="non-scaling-stroke" transform="matrix(1, 0, 0, 1, -316.15, -262.39)" stroke-linecap="butt" opacity="1" fill="rgb(236, 190, 5)" stroke="none" stroke-width="1px" stroke-linejoin="miter" stroke-miterlimit="4" class=""/>
</g><g transform="matrix(0.26, 0, 0, 0.26, -4.24005, -73.83)" class="">
<path d="M 277.52 233.836 C 285.577 230.924 290.077 222.352 287.90299999999996 214.066 C 285.729 205.787 277.585 200.531 269.14699999999993 201.961 C 264.69399999999996 202.711 261.63499999999993 204.53900000000002 258.85799999999995 208.102 C 257.90299999999996 209.327 257.15899999999993 210.622 256.5729999999999 212.05100000000002 C 256.39699999999993 212.485 255.2079999999999 215.186 255.87599999999992 215.66000000000003 C 256.9009999999999 216.38700000000003 257.92099999999994 217.12500000000003 258.93499999999995 217.88100000000003 C 265.514 222.773 271.672 228.082 277.52 233.836 Z" vector-effect="non-scaling-stroke" transform="matrix(1, 0, 0, 1, -272.06, -217.78)" stroke-linecap="butt" opacity="1" fill="rgb(236, 190, 5)" stroke="none" stroke-width="1px" stroke-linejoin="miter" stroke-miterlimit="4" class=""/>
</g><g transform="matrix(0.26, 0, 0, 0.26, -15.68, -85.0999)" class="">
<path d="M 244.332 174.158 C 244.332 165.023 236.926 157.617 227.791 157.617 C 218.65 157.617 211.244 165.023 211.244 174.158 C 211.244 183.29299999999998 218.65 190.69899999999998 227.791 190.69899999999998 C 236.926 190.699 244.332 183.293 244.332 174.158 Z" vector-effect="non-scaling-stroke" transform="matrix(1, 0, 0, 1, -227.79, -174.16)" stroke-linecap="butt" opacity="1" fill="rgb(236, 190, 5)" stroke="none" stroke-width="1px" stroke-linejoin="miter" stroke-miterlimit="4" class=""/>
</g><g transform="matrix(0.26, 0, 0, 0.26, 7.11002, -107.9)" class="">
<path d="M 332.557 85.934 C 332.557 76.79299999999999 325.151 69.387 316.016 69.387 C 306.88100000000003 69.387 299.475 76.793 299.475 85.934 C 299.475 95.069 306.88100000000003 102.475 316.016 102.475 C 325.151 102.475 332.557 95.068 332.557 85.934 Z" vector-effect="non-scaling-stroke" transform="matrix(1, 0, 0, 1, -316.02, -85.93)" stroke-linecap="butt" opacity="1" fill="rgb(236, 190, 5)" stroke="none" stroke-width="1px" stroke-linejoin="miter" stroke-miterlimit="4" class=""/>
</g><g transform="matrix(0.26, 0, 0, 0.26, -4.29007, -96.5)" class="">
<path d="M 288.447 130.043 C 288.447 120.908 281.041 113.50200000000001 271.9 113.50200000000001 C 262.765 113.50200000000001 255.35899999999998 120.90800000000002 255.35899999999998 130.043 C 255.35899999999998 139.184 262.765 146.59 271.9 146.59 C 281.041 146.59 288.447 139.184 288.447 130.043 Z" vector-effect="non-scaling-stroke" transform="matrix(1, 0, 0, 1, -271.9, -130.05)" stroke-linecap="butt" opacity="1" fill="rgb(236, 190, 5)" stroke="none" stroke-width="1px" stroke-linejoin="miter" stroke-miterlimit="4" class=""/>
</g><g transform="matrix(0.26, 0, 0, 0.26, -4.16, -33.26)" class="">
<path d="M 194.902 199.945 C 269.849 218.12099999999998 309.541 282.422 329.884 348.609 C 340.325 382.56399999999996 346.132 416.613 348.40000000000003 451.99199999999996 C 349.54800000000006 469.82199999999995 350.29800000000006 483.47999999999996 342.96200000000005 500.75399999999996 C 335.62600000000003 518.0509999999999 322.232 532.0659999999999 305.29200000000003 540.199 C 296.591 544.371 287.86 546.7379999999999 278.25100000000003 547.529 C 277.70000000000005 547.57 277.14900000000006 547.617 276.59900000000005 547.646 C 276.32400000000007 547.664 276.04800000000006 547.675 275.77900000000005 547.693 C 275.66200000000003 547.699 275.28700000000003 547.828 275.4390000000001 547.658 C 275.70900000000006 547.359 275.97800000000007 547.0600000000001 276.2360000000001 546.7620000000001 C 278.3750000000001 544.3240000000001 280.3610000000001 541.793 282.2240000000001 539.1450000000001 C 286.0850000000001 533.6550000000001 289.3020000000001 527.8950000000001 292.0850000000001 521.801 C 298.1900000000001 508.43000000000006 301.75900000000007 494.754 304.02600000000007 480.31700000000006 C 309.38700000000006 446.2270000000001 306.59200000000004 409.0200000000001 299.86000000000007 375.60400000000004 C 288.23 317.859 254.791 231.211 194.902 199.945 Z" vector-effect="non-scaling-stroke" transform="matrix(1, 0, 0, 1, -272.02, -373.85)" stroke-linecap="butt" opacity="1" fill="rgb(59, 140, 71)" stroke="none" stroke-width="1px" stroke-linejoin="miter" stroke-miterlimit="4" class=""/>
</g><g transform="matrix(0.26, 0, 0, 0.26, 7.11002, -96.5)" class="">
<path d="M 332.557 130.043 C 332.557 120.908 325.151 113.50200000000001 316.016 113.50200000000001 C 306.88100000000003 113.50200000000001 299.475 120.90800000000002 299.475 130.043 C 299.475 139.184 306.88100000000003 146.59 316.016 146.59 C 325.151 146.59 332.557 139.184 332.557 130.043 Z" vector-effect="non-scaling-stroke" transform="matrix(1, 0, 0, 1, -316.02, -130.05)" stroke-linecap="butt" opacity="1" fill="rgb(236, 190, 5)" stroke="none" stroke-width="1px" stroke-linejoin="miter" stroke-miterlimit="4" class=""/>
</g><g transform="matrix(0.26, 0, 0, 0.26, 23.62, -39.04)" class="">
<path d="M 356.439 420.211 C 356.802 374.836 368.28700000000003 311.18 426.482 291.785 C 426.482 291.785 395.28700000000003 260.59000000000003 332.896 322.98 C 335.404 329.57800000000003 337.677 336.18100000000004 339.74 342.732 C 342.248 350.689 344.439 358.57000000000005 346.361 366.281 C 348.283 373.98 349.935 381.515 351.353 388.769 C 353.562 400.031 355.209 410.631 356.439 420.211 Z" vector-effect="non-scaling-stroke" transform="matrix(1, 0, 0, 1, -379.69, -352.1)" stroke-linecap="butt" opacity="1" fill="rgb(59, 140, 71)" stroke="none" stroke-width="1px" stroke-linejoin="miter" stroke-miterlimit="4" class=""/>
</g><g transform="matrix(0.26, 0, 0, 0.26, -4.29007, -119.3)" class="">
<path d="M 288.447 41.812 C 288.447 32.683 281.041 25.276999999999997 271.9 25.276999999999997 C 262.765 25.276999999999997 255.35899999999998 32.683 255.35899999999998 41.812 C 255.35899999999998 50.952999999999996 262.765 58.358999999999995 271.9 58.358999999999995 C 281.041 58.359 288.447 50.953 288.447 41.812 Z" vector-effect="non-scaling-stroke" transform="matrix(1, 0, 0, 1, -271.9, -41.82)" stroke-linecap="butt" opacity="1" fill="rgb(236, 190, 5)" stroke="none" stroke-width="1px" stroke-linejoin="miter" stroke-miterlimit="4" class=""/>
</g><g transform="matrix(0.26, 0, 0, 0.26, -4.29007, -107.9)" class="">
<path d="M 288.447 85.934 C 288.447 76.79299999999999 281.041 69.387 271.9 69.387 C 262.765 69.387 255.35899999999998 76.793 255.35899999999998 85.934 C 255.35899999999998 95.069 262.765 102.475 271.9 102.475 C 281.041 102.475 288.447 95.068 288.447 85.934 Z" vector-effect="non-scaling-stroke" transform="matrix(1, 0, 0, 1, -271.9, -85.93)" stroke-linecap="butt" opacity="1" fill="rgb(236, 190, 5)" stroke="none" stroke-width="1px" stroke-linejoin="miter" stroke-miterlimit="4" class=""/>
</g><g transform="matrix(0.26, 0, 0, 0.26, -15.68, -107.9)" class="">
<path d="M 244.332 85.934 C 244.332 76.79299999999999 236.926 69.387 227.791 69.387 C 218.65 69.387 211.244 76.793 211.244 85.934 C 211.244 95.069 218.65 102.475 227.791 102.475 C 236.926 102.475 244.332 95.068 244.332 85.934 Z" vector-effect="non-scaling-stroke" transform="matrix(1, 0, 0, 1, -227.79, -85.93)" stroke-linecap="butt" opacity="1" fill="rgb(236, 190, 5)" stroke="none" stroke-width="1px" stroke-linejoin="miter" stroke-miterlimit="4" class=""/>
</g><g transform="matrix(0.26, 0, 0, 0.26, -15.68, -96.5)" class="">
<path d="M 244.332 130.043 C 244.332 120.908 236.926 113.50200000000001 227.791 113.50200000000001 C 218.65 113.50200000000001 211.244 120.90800000000002 211.244 130.043 C 211.244 139.184 218.65 146.59 227.791 146.59 C 236.926 146.59 244.332 139.184 244.332 130.043 Z" vector-effect="non-scaling-stroke" transform="matrix(1, 0, 0, 1, -227.79, -130.05)" stroke-linecap="butt" opacity="1" fill="rgb(236, 190, 5)" stroke="none" stroke-width="1px" stroke-linejoin="miter" stroke-miterlimit="4" class=""/>
</g><g transform="matrix(0.26, 0, 0, 0.26, 7.11002, -73.71)" class="">
<path d="M 332.557 218.273 C 332.557 209.132 325.151 201.726 316.016 201.726 C 306.88100000000003 201.726 299.475 209.132 299.475 218.273 C 299.475 227.408 306.88100000000003 234.814 316.016 234.814 C 325.151 234.814 332.557 227.408 332.557 218.273 Z" vector-effect="non-scaling-stroke" transform="matrix(1, 0, 0, 1, -316.02, -218.27)" stroke-linecap="butt" opacity="1" fill="rgb(236, 190, 5)" stroke="none" stroke-width="1px" stroke-linejoin="miter" stroke-miterlimit="4" class=""/>
</g><g transform="matrix(0.26, 0, 0, 0.26, 7.11002, -85.0999)" class="">
<circle vector-effect="non-scaling-stroke" cx="0" cy="0" r="16.541" opacity="1" fill="rgb(236, 190, 5)" stroke="none" stroke-width="1px" stroke-linecap="butt" stroke-linejoin="miter" stroke-miterlimit="4" class="" transform="matrix(1, 0, 0, 1, 0, 0)"/>
</g><g transform="matrix(0.999954, -0.00959702, 0.00959702, 0.999954, -325.387, -187.66)" data-css-class="" class="" fill="#A03737" fill-opacity="1"><g transform="matrix(1, 0, 0, 1, 2.27374e-13, 0)" data-css-class="" class=""><svg xmlns="http://www.w3.org/2000/svg" xmlns:xlink="http://www.w3.org/1999/xlink" viewBox="0 0 640 400" data-background-color="#051726" preserveAspectRatio="xMidYMid meet" height="400" width="640" transform="matrix(1, 0, 0, 1, 2.27374e-13, 0)"><g id="tight-bounds" transform="matrix(1, 0, 0, 1, 122.24, 137.63)" data-css-class="" class=""><svg viewBox="0 0 395.52 124.73936492712852" height="124.73936492712852" width="395.52" transform="matrix(1, 0, 0, 1, 0, -5.68434e-14)"><g data-css-class="" class="" transform="matrix(1, 0, 0, 1, 0, 0)"><svg viewBox="0 0 395.52 124.73936492712852" height="124.73936492712852" width="395.52" transform="matrix(1, 0, 0, 1, 0, 0)"><g transform="matrix(1, 0, 0, 1, 0, 81.8828)" data-css-class="" class=""/><g transform="matrix(1, 0, 0, 1, 149.427, 0)" data-css-class="" class=""><svg viewBox="0 0 96.66641292811723 69.34213628042028" height="69.34213628042028" width="96.66641292811723" transform="matrix(1, 0, 0, 1, 0, 0)"><g data-css-class="" class="" transform="matrix(1, 0, 0, 1, 0, 0)"><svg xmlns="http://www.w3.org/2000/svg" xmlns:xlink="http://www.w3.org/1999/xlink" x="0" y="0" viewBox="0.00011497596278786659 14.135001182556152 99.9991226196289 71.73280334472656" height="69.34213628042028" width="96.66641292811723" data-fill-palette-color="accent" id="icon-0" data-css-class="icon-icon-0" transform="matrix(1, 0, 0, 1, 0, 0)"><path d="M 98.83599853515625 33.6879997253418 C 97.7750015258789 32.987998962402344 95.9469985961914 31.54400062561035 94.63899993896484 29.558000564575195 C 93.33000183105469 27.57200050354004 92.92400360107422 27.302000045776367 92.78800201416016 25.541000366210938 C 92.78800201416016 25.541000366210938 95.76699829101562 25.698999404907227 97.16600036621094 23.125999450683594 C 97.16600036621094 23.125999450683594 95.74400329589844 21.343000411987305 93.12699890136719 22.020999908447266 C 90.50900268554688 22.697999954223633 90.1709976196289 23.05900001525879 89.96800231933594 22.743000030517578 C 89.76499938964844 22.42799949645996 89.02400207519531 20.676000595092773 88.1240005493164 20.174999237060547 C 87.79900360107422 19.187000274658203 87.71800231933594 17.492000579833984 89.54199981689453 15.404000282287598 C 89.54199981689453 15.404000282287598 86.36399841308594 16.54400062561035 85.86799621582031 19.663999557495117 C 85.48400115966797 19.677000045776367 85.08499908447266 19.733999252319336 84.6760025024414 19.843000411987305 C 84.09200286865234 19.99799919128418 83.47799682617188 20.297000885009766 82.802001953125 20.695999145507812 L 82.802001953125 20.695999145507812 C 82.802001953125 20.695999145507812 79.44100189208984 19.246000289916992 80.8280029296875 14.135000228881836 C 80.8280029296875 14.135000228881836 76.98500061035156 18.06999969482422 80.07499694824219 22.482999801635742 C 79.51799774169922 22.856000900268555 78.9229965209961 23.249000549316406 78.27799987792969 23.650999069213867 C 75.43499755859375 25.42799949645996 74.52100372314453 25.52899932861328 72.08399963378906 26.44300079345703 C 69.64700317382812 27.35700035095215 65.0270004272461 28.98200035095215 62.99599838256836 28.82900047302246 C 60.965999603271484 28.677000045776367 57.4109992980957 28.392000198364258 53.50199890136719 28.839000701904297 C 49.59299850463867 29.285999298095703 44.972999572753906 29.386999130249023 41.672000885009766 29.59000015258789 C 38.37099838256836 29.792999267578125 31.416000366210938 29.8439998626709 29.030000686645508 29.59000015258789 C 26.643999099731445 29.336999893188477 24.51099967956543 29.18400001525879 22.226999282836914 29.285999298095703 C 19.941999435424805 29.386999130249023 12.935999870300293 28.981000900268555 9.83899974822998 29.336999893188477 C 6.742000102996826 29.691999435424805 1.715999960899353 31.825000762939453 1.715999960899353 39.694000244140625 C 1.715999960899353 47.5629997253418 2.1679999828338623 47.7130012512207 2.0880000591278076 50.36399841308594 C 1.9259999990463257 55.676998138427734 0.23399999737739563 57.132999420166016 0.006000000052154064 60.77299880981445 C -0.0949999988079071 62.39400100708008 1.1230000257492065 66.51000213623047 2.240000009536743 67.77899932861328 C 2.240000009536743 67.77899932861328 2.178999900817871 65.76300048828125 3.1610000133514404 63.39400100708008 C 4.14300012588501 61.02399826049805 3.805000066757202 55.641998291015625 3.703000068664551 51.03900146484375 C 3.6010000705718994 46.43600082397461 3.6519999504089355 50.25199890136719 3.686000108718872 46.52799987792969 C 3.7200000286102295 42.80500030517578 3.9570000171661377 40.402000427246094 4.633999824523926 38.74300003051758 C 4.633999824523926 38.74300003051758 4.666999816894531 47.500999450683594 8.390999794006348 55.29600143432617 C 8.390999794006348 55.29600143432617 7.511000156402588 59.290000915527344 7.171999931335449 60.474998474121094 C 6.834000110626221 61.65999984741211 6.427000045776367 63.11600112915039 5.920000076293945 63.691001892089844 C 5.413000106811523 64.26599884033203 4.328999996185303 67.24500274658203 5.175000190734863 69.81700134277344 C 5.175000190734863 69.81700134277344 4.701000213623047 74.86100006103516 4.328999996185303 76.62200164794922 C 3.9570000171661377 78.38200378417969 3.3480000495910645 79.73500061035156 3.4489998817443848 80.0739974975586 C 3.549999952316284 80.41300201416016 3.686000108718872 81.73200225830078 3.7869999408721924 81.76599884033203 C 3.888000011444092 81.80000305175781 4.159999847412109 82.1719970703125 4.295000076293945 82.00299835205078 C 4.429999828338623 81.83399963378906 4.735000133514404 81.29199981689453 4.735000133514404 81.29199981689453 L 5.4120001792907715 81.83399963378906 C 5.4120001792907715 81.83399963378906 5.513000011444092 85.01599884033203 6.664000034332275 85.38800048828125 C 7.815000057220459 85.76100158691406 8.965999603271484 85.89600372314453 10.218999862670898 85.86299896240234 C 11.470999717712402 85.8280029296875 12.25 85.32099914550781 12.25 85.1510009765625 C 12.25 84.98200225830078 10.489999771118164 82.61299896240234 9.880000114440918 82.23999786376953 C 9.270999908447266 81.86799621582031 8.357000350952148 81.63200378417969 8.152999877929688 79.87100219726562 C 7.949999809265137 78.11100006103516 8.017999649047852 74.05000305175781 8.491999626159668 71.74800109863281 C 8.965999603271484 69.44599914550781 9.541000366210938 70.05599975585938 9.947999954223633 68.53099822998047 C 10.354000091552734 67.00900268554688 12.859000205993652 63.89400100708008 13.501999855041504 63.55500030517578 C 14.597000122070312 62.61600112915039 17.24799919128418 60.37799835205078 18.267000198364258 58.90800094604492 C 19.28499984741211 57.4370002746582 20.575000762939453 55.060001373291016 21.208999633789062 53.6349983215332 C 21.208999633789062 53.6349983215332 20.349000930786133 57.391998291015625 19.308000564575195 59.3380012512207 C 18.413000106811523 61.01300048828125 16.381000518798828 63.486000061035156 15.065999984741211 64.86599731445312 C 15.262999534606934 65.03399658203125 15.42300033569336 65.1709976196289 15.5 65.24099731445312 C 15.92199993133545 65.625 16.575000762939453 66.71800231933594 16.687999725341797 67.35299682617188 C 16.78700065612793 67.9020004272461 16.673999786376953 70.55799865722656 18.149999618530273 70.53099822998047 C 18.80500030517578 70.53099822998047 19.152000427246094 69.58399963378906 19.320999145507812 69.07599639892578 C 19.489999771118164 68.56800079345703 19.7810001373291 67.6709976196289 19.91699981689453 67.53500366210938 C 19.91699981689453 67.53500366210938 20.214000701904297 67.63099670410156 21.025999069213867 67.4280014038086 C 21.839000701904297 67.2249984741211 22.416000366210938 67.36900329589844 22.55299949645996 67.75399780273438 C 22.80900001525879 68.47200012207031 22.54400062561035 70.62899780273438 23.923999786376953 70.50700378417969 C 24.98900032043457 70.41100311279297 24.945999145507812 68.23899841308594 25.038999557495117 67.35099792480469 C 25.128999710083008 66.4990005493164 25.784000396728516 66.53900146484375 26.358999252319336 66.26799774169922 C 26.93400001525879 65.99700164794922 27.761999130249023 65.33000183105469 28.371000289916992 64.58399963378906 C 28.979999542236328 63.84000015258789 30.30699920654297 62.483001708984375 31.423999786376953 62.551998138427734 C 32.54100036621094 62.61899948120117 34.14799880981445 62.87900161743164 35.63800048828125 63.21799850463867 C 37.12699890136719 63.555999755859375 41.49399948120117 63.59000015258789 44.33700180053711 62.74300003051758 C 46.875 61.987998962402344 50.95199966430664 59.724998474121094 56.18000030517578 60.83700180053711 C 56.18000030517578 60.83599853515625 56.18000030517578 60.83599853515625 56.18000030517578 60.834999084472656 C 56.167999267578125 55.81399917602539 58.51100158691406 52.34600067138672 58.51100158691406 52.34600067138672 C 57.39099884033203 59.145999908447266 58.35100173950195 66.09500122070312 58.62099838256836 66.9749984741211 C 58.891998291015625 67.8550033569336 58.486000061035156 68.66799926757812 58.68899917602539 69.81800079345703 C 58.891998291015625 70.96900177001953 59.12799835205078 72.01899719238281 59.16299819946289 73.27100372314453 C 59.19599914550781 74.52400207519531 58.858001708984375 79.26200103759766 58.55400085449219 80.48100280761719 C 58.25 81.69999694824219 58.08000183105469 83.0530014038086 58.62099838256836 83.08699798583984 C 59.16299819946289 83.12000274658203 59.36600112915039 82.34200286865234 59.737998962402344 82.5790023803711 C 60.11000061035156 82.81600189208984 60.415000915527344 84.54199981689453 61.49800109863281 85.18499755859375 C 62.582000732421875 85.8280029296875 64.375 85.76100158691406 65.12000274658203 85.6240005493164 C 65.86499786376953 85.48899841308594 66.60900115966797 85.1500015258789 66.6780014038086 84.60900115966797 C 66.74500274658203 84.06700134277344 65.69599914550781 83.18699645996094 64.74800109863281 82.5780029296875 C 63.79999923706055 81.96900177001953 62.81800079345703 81.93399810791016 62.4119987487793 79.39600372314453 C 62.00600051879883 76.85700225830078 62.106998443603516 75.30000305175781 62.14099884033203 74.31900024414062 C 62.17499923706055 73.33799743652344 62.24300003051758 72.66000366210938 62.09600067138672 72.0510025024414 C 62.09600067138672 72.0510025024414 62.81800079345703 71.6449966430664 63.15700149536133 69.09500122070312 C 63.494998931884766 66.54399871826172 66.81300354003906 62.979000091552734 68.23400115966797 61.04899978637695 C 69.65599822998047 59.119998931884766 72.0250015258789 56.97999954223633 73.1760025024414 52.854000091552734 C 74.32599639892578 48.72800064086914 76.322998046875 46.96799850463867 77.77999877929688 44.73400115966797 C 79.23500061035156 42.5 82.04499816894531 37.99800109863281 82.78900146484375 37.79499816894531 C 83.53399658203125 37.59199905395508 84.447998046875 37.52399826049805 85.22699737548828 37.72700119018555 C 86.00599670410156 37.93000030517578 88.64600372314453 37.79499816894531 89.76300048828125 37.72700119018555 C 90.87999725341797 37.65999984741211 91.59100341796875 38.20100021362305 93.55400085449219 38.099998474121094 C 93.55400085449219 38.099998474121094 95.04299926757812 38.70899963378906 96.3290023803711 38.777000427246094 C 97.61499786376953 38.84400177001953 99.03700256347656 38.40399932861328 99.30799865722656 37.862998962402344 C 99.5790023803711 37.32099914550781 99.91699981689453 35.832000732421875 99.98500061035156 35.358001708984375 C 100.05500030517578 34.882999420166016 99.89600372314453 34.387001037597656 98.83599853515625 33.6879997253418 Z " fill="#ECECEC" data-fill-palette-color="accent" data-css-class="" class="" transform="matrix(1, 0, 0, 1, 0, 0)" fill-opacity="1"/></svg></g></svg></g><g class="" transform="matrix(1, 0, 0, 1, 0, 0)"/></svg></g></svg></g></svg></g><g transform="matrix(1, 0, 0, 1, 0, 0)" data-css-class="" class=""/></g></g></g>
<path d="M 38.51399612426758 2.8449127674102783 L 42.31699752807617 2.487912654876709 L 42.797996520996094 7.615912914276123 L 26.439998626708984 9.14991283416748 L 25.95899772644043 4.022912502288818 L 30.299997329711914 3.615912675857544 L 20.518997192382812 -5.57108736038208 L 14.250999450683594 0.6319127678871155 L 14.668998718261719 5.081912517547607 L 20.194997787475586 4.563912868499756 L 20.67599868774414 9.690913200378418 L 2.793999671936035 11.368913650512695 L 2.312999725341797 6.240912914276123 L 8.17699909210205 5.69091272354126 L 5.994999408721924 -17.567087173461914 L 0.13099998235702515 -17.017087936401367 L -0.34999996423721313 -22.144086837768555 L 17.531997680664062 -23.82208824157715 L 18.012998580932617 -18.694087982177734 L 12.48699951171875 -18.176088333129883 L 13.70099925994873 -5.233087062835693 L 28.117998123168945 -19.642087936401367 L 23.040998458862305 -19.166088104248047 L 22.55999755859375 -24.293087005615234 L 38.82799530029297 -25.820087432861328 L 39.30899429321289 -20.692087173461914 L 35.3069953918457 -20.317087173461914 L 24.670997619628906 -9.707086563110352 L 38.51399612426758 2.8449127674102783 Z M 62.6359977722168 6.813912868499756 C 59.2449951171875 7.063912868499756 56.13099670410156 6.531912803649902 53.29299545288086 5.216912746429443 C 50.45499801635742 3.8959126472473145 48.163997650146484 1.9719127416610718 46.41999435424805 -0.5530872344970703 C 44.675994873046875 -3.078087329864502 43.6829948425293 -5.990087032318115 43.438995361328125 -9.287086486816406 L 43.438995361328125 -9.287086486816406 C 43.19599533081055 -12.585086822509766 43.75099563598633 -15.620086669921875 45.10399627685547 -18.394086837768555 C 46.45699691772461 -21.161087036132812 48.447998046875 -23.407087326049805 51.073997497558594 -25.13208770751953 C 53.7079963684082 -26.850088119506836 56.70399475097656 -27.833087921142578 60.06199645996094 -28.081087112426758 L 60.06199645996094 -28.081087112426758 C 63.3859977722168 -28.326087951660156 66.46699523925781 -27.791088104248047 69.30499267578125 -26.477087020874023 C 72.14299011230469 -25.15608787536621 74.43498992919922 -23.22608757019043 76.17899322509766 -20.687088012695312 C 77.92399597167969 -18.142087936401367 78.91899108886719 -15.220087051391602 79.16199493408203 -11.922086715698242 L 79.16199493408203 -11.922086715698242 C 79.40299224853516 -8.658086776733398 78.84699249267578 -5.638087272644043 77.4939956665039 -2.8650872707366943 C 76.1409912109375 -0.09808724373579025 74.15699005126953 2.1469128131866455 71.5429916381836 3.870912790298462 C 68.92899322509766 5.587912559509277 65.95999145507812 6.568912506103516 62.6359977722168 6.813912868499756 Z M 62.245994567871094 1.5289127826690674 C 64.39999389648438 1.3699127435684204 66.27899169921875 0.6969127655029297 67.88199615478516 -0.4920872747898102 C 69.47898864746094 -1.673087239265442 70.6679916381836 -3.2280871868133545 71.44898986816406 -5.157087326049805 C 72.22299194335938 -7.079087257385254 72.52699279785156 -9.167086601257324 72.35999298095703 -11.421086311340332 L 72.35999298095703 -11.421086311340332 C 72.19099426269531 -13.708086967468262 71.58299255371094 -15.746087074279785 70.53599548339844 -17.53308868408203 C 69.48099517822266 -19.32708740234375 68.08399200439453 -20.69108772277832 66.3429946899414 -21.626087188720703 C 64.60198974609375 -22.567087173461914 62.637996673583984 -22.957088470458984 60.45099639892578 -22.795087814331055 L 60.45099639892578 -22.795087814331055 C 58.19699478149414 -22.629087448120117 56.271995544433594 -21.945087432861328 54.67699432373047 -20.745088577270508 C 53.073997497558594 -19.54408836364746 51.8859977722168 -17.98908805847168 51.1099967956543 -16.080087661743164 C 50.32799530029297 -14.171086311340332 50.021995544433594 -12.072086334228516 50.19099807739258 -9.785086631774902 L 50.19099807739258 -9.785086631774902 C 50.361995697021484 -7.471087455749512 50.97299575805664 -5.43408727645874 52.02499771118164 -3.6740872859954834 C 53.07099533081055 -1.913087248802185 54.473995208740234 -0.5660872459411621 56.2339973449707 0.36791273951530457 C 57.98799514770508 1.3079127073287964 59.99199676513672 1.6949127912521362 62.245994567871094 1.5289127826690674 Z M 119.97199249267578 -2.376087188720703 L 123.78599548339844 -2.577087163925171 L 124.05699157714844 2.5659127235412598 L 107.64899444580078 3.42891263961792 L 107.37899017333984 -1.7140872478485107 L 111.73299407958984 -1.9430872201919556 L 102.33699035644531 -11.522087097167969 L 95.81999206542969 -5.58208703994751 L 96.05499267578125 -1.1180872917175293 L 101.59699249267578 -1.41008722782135 L 101.86698913574219 3.73291277885437 L 83.93199157714844 4.676912784576416 L 83.66199493408203 -0.4660872519016266 L 89.54399108886719 -0.7760872840881348 L 88.3169937133789 -24.10308837890625 L 82.43498992919922 -23.79408836364746 L 82.16399383544922 -28.937088012695312 L 100.09999084472656 -29.88008689880371 L 100.3699951171875 -24.73708724975586 L 94.82799530029297 -24.446086883544922 L 95.51099395751953 -11.464086532592773 L 110.50598907470703 -25.27008819580078 L 105.41299438476562 -25.003087997436523 L 105.14299011230469 -30.14508819580078 L 121.45999145507812 -31.004087448120117 L 121.73099517822266 -25.861087799072266 L 117.71599578857422 -25.650087356567383 L 106.65499114990234 -15.485086441040039 L 119.97199249267578 -2.376087188720703 Z M 124.44699096679688 -31.105087280273438 L 159.70797729492188 -32.26008605957031 L 160.10098266601562 -20.2460880279541 L 154.4139862060547 -20.060087203979492 L 154.1899871826172 -26.926088333129883 L 145.55398559570312 -26.64308738708496 L 146.31797790527344 -3.2960872650146484 L 152.20498657226562 -3.4890873432159424 L 152.3739776611328 1.6589127779006958 L 134.08297729492188 2.2569127082824707 L 133.91497802734375 -2.890087366104126 L 139.80198669433594 -3.083087205886841 L 139.03797912597656 -26.43008804321289 L 130.30198669433594 -26.144086837768555 L 130.5269775390625 -19.278087615966797 L 124.8399887084961 -19.092086791992188 L 124.44699096679688 -31.105087280273438 Z M 195.54698181152344 -4.210087299346924 L 200.25698852539062 -4.274087429046631 L 200.32598876953125 0.8749127388000488 L 183.69798278808594 1.1009126901626587 L 183.62799072265625 -4.049087047576904 L 188.77798461914062 -4.119087219238281 L 186.24098205566406 -10.465086936950684 L 172.84298706054688 -10.283086776733398 L 170.47898864746094 -3.8710873126983643 L 176.11898803710938 -3.947087287902832 L 176.18898010253906 1.201912760734558 L 159.79998779296875 1.423912763595581 L 159.72998046875 -3.7250871658325195 L 164.33998107910156 -3.7880873680114746 L 173.9919891357422 -27.331087112426758 L 169.77198791503906 -27.273088455200195 L 169.70298767089844 -32.37308883666992 L 189.37098693847656 -32.63908767700195 L 189.4399871826172 -27.540088653564453 L 185.17098999023438 -27.482088088989258 L 195.54698181152344 -4.210087299346924 Z M 174.54998779296875 -14.917086601257324 L 184.4089813232422 -15.05108642578125 L 179.4309844970703 -27.40408706665039 L 179.19097900390625 -27.401086807250977 L 174.54998779296875 -14.917086601257324 Z M 228.28997802734375 -11.881086349487305 L 234.4299774169922 -11.85008716583252 L 234.364990234375 1.048912763595581 L 202.22598266601562 0.8879127502441406 L 202.25198364257812 -4.262087345123291 L 208.14198303222656 -4.233087062835693 L 208.2589874267578 -27.592086791992188 L 202.36898803710938 -27.622087478637695 L 202.39498901367188 -32.77208709716797 L 220.64498901367188 -32.68008804321289 L 220.61898803710938 -27.530088424682617 L 214.72898864746094 -27.560087203979492 L 214.6119842529297 -4.200087070465088 L 228.25099182128906 -4.131087303161621 L 228.28997802734375 -11.881086349487305 Z M 286.93597412109375 -2.6190872192382812 L 291.64398193359375 -2.4660873413085938 L 291.4769592285156 2.680912733078003 L 274.85595703125 2.1429126262664795 L 275.0229797363281 -3.004087209701538 L 280.16998291015625 -2.838087320327759 L 277.927978515625 -9.294086456298828 L 264.53497314453125 -9.727087020874023 L 261.8799743652344 -3.4300873279571533 L 267.5169677734375 -3.247087240219116 L 267.3499755859375 1.899912714958191 L 250.96897888183594 1.3699127435684204 L 251.13497924804688 -3.7780873775482178 L 255.74298095703125 -3.628087282180786 L 266.4649658203125 -26.70408821105957 L 262.2469787597656 -26.840087890625 L 262.4119567871094 -31.937088012695312 L 282.07196044921875 -31.301088333129883 L 281.906982421875 -26.20408821105957 L 277.63897705078125 -26.342086791992188 L 286.93597412109375 -2.6190872192382812 Z M 266.4529724121094 -14.277087211608887 L 276.3079833984375 -13.958086967468262 L 271.9019775390625 -26.528087615966797 L 271.6619567871094 -26.53508758544922 L 266.4529724121094 -14.277087211608887 Z M 312.0579833984375 -25.499088287353516 C 309.9339599609375 -25.607088088989258 307.9709777832031 -25.206087112426758 306.16998291015625 -24.29608726501465 C 304.3749694824219 -23.38608741760254 302.9239807128906 -22.028087615966797 301.8179626464844 -20.221088409423828 C 300.7049560546875 -18.40808868408203 300.083984375 -16.24408721923828 299.9559631347656 -13.727087020874023 L 299.9559631347656 -13.727087020874023 C 299.8349609375 -11.343087196350098 300.2269592285156 -9.204087257385254 301.1329650878906 -7.30908727645874 C 302.0379638671875 -5.407087326049805 303.3459777832031 -3.8990871906280518 305.0589599609375 -2.7850873470306396 C 306.7709655761719 -1.6640872955322266 308.7359619140625 -1.04708731174469 310.95196533203125 -0.9340872764587402 L 310.95196533203125 -0.9340872764587402 C 314.68096923828125 -0.7450872659683228 317.8499755859375 -1.5020872354507446 320.4599609375 -3.205087184906006 L 320.4599609375 -3.205087184906006 L 320.73797607421875 -8.698086738586426 L 310.8309631347656 -9.20108699798584 L 311.07696533203125 -14.044086456298828 L 326.80596923828125 -13.247086524963379 L 326.1399841308594 -0.11408724635839462 C 324.3309631347656 1.329912781715393 322.0699768066406 2.4729127883911133 319.35797119140625 3.3169126510620117 C 316.6509704589844 4.16791296005249 313.7599792480469 4.5149126052856445 310.6839599609375 4.358912944793701 L 310.6839599609375 4.358912944793701 C 307.0289611816406 4.173912525177002 303.8409729003906 3.2579126358032227 301.1209716796875 1.6109126806259155 C 298.407958984375 -0.03508724644780159 296.365966796875 -2.2280871868133545 294.9959716796875 -4.967087268829346 C 293.6259765625 -7.70708703994751 293.0259704589844 -10.741086959838867 293.1949768066406 -14.070086479187012 L 293.1949768066406 -14.070086479187012 C 293.3609619140625 -17.339088439941406 294.2569580078125 -20.267087936401367 295.88397216796875 -22.855087280273438 C 297.50396728515625 -25.44308853149414 299.6279602050781 -27.438087463378906 302.2549743652344 -28.840087890625 C 304.8759765625 -30.249088287353516 307.7079772949219 -30.876087188720703 310.7509765625 -30.722087860107422 L 310.7509765625 -30.722087860107422 C 313.03497314453125 -30.606088638305664 315.1069641113281 -30.131088256835938 316.96697998046875 -29.29608726501465 C 318.82098388671875 -28.468088150024414 320.41595458984375 -27.349088668823242 321.7529602050781 -25.9390869140625 L 321.7529602050781 -25.9390869140625 L 321.9319763183594 -29.464088439941406 L 327.6139831542969 -29.176088333129883 L 327.0649719238281 -18.350088119506836 L 322.8859558105469 -18.262086868286133 C 321.87896728515625 -20.249088287353516 320.4649658203125 -21.91908836364746 318.64398193359375 -23.273088455200195 C 316.8299560546875 -24.62708854675293 314.6349792480469 -25.36908721923828 312.0579833984375 -25.499088287353516 Z M 366.4559631347656 0.23491275310516357 L 369.19696044921875 4.66191291809082 C 368.2049560546875 5.6399126052856445 367.1169738769531 6.41791296005249 365.9329833984375 6.994912624359131 C 364.74298095703125 7.564912796020508 363.31597900390625 7.790912628173828 361.6539611816406 7.671912670135498 L 361.6539611816406 7.671912670135498 C 358.6479797363281 7.456912517547607 356.21697998046875 6.223912715911865 354.3589782714844 3.9729127883911133 C 352.5079650878906 1.7289127111434937 351.1849670410156 -1.6540873050689697 350.3919677734375 -6.176087379455566 L 350.3919677734375 -6.176087379455566 L 350.0149841308594 -7.777087211608887 L 343.9899597167969 -8.207086563110352 L 343.3639831542969 0.5609127283096313 L 349.0889587402344 0.9699127674102783 L 348.7259826660156 6.056912899017334 L 330.6219787597656 4.762912750244141 L 330.9889831542969 -0.37408727407455444 L 336.8639831542969 0.04591275379061699 L 338.5289611816406 -23.254087448120117 L 332.6539611816406 -23.674087524414062 L 333.0209655761719 -28.81108856201172 L 352.78997802734375 -27.39908790588379 C 356.7399597167969 -27.117088317871094 359.8199768066406 -26.021087646484375 362.0289611816406 -24.11208724975586 C 364.23095703125 -22.19708824157715 365.22296142578125 -19.707088470458984 365.0049743652344 -16.641088485717773 L 365.0049743652344 -16.641088485717773 C 364.8229675292969 -14.094086647033691 363.9319763183594 -12.059086799621582 362.3329772949219 -10.536087036132812 C 360.73297119140625 -9.006086349487305 358.5439758300781 -8.06308650970459 355.76397705078125 -7.70708703994751 L 355.76397705078125 -7.70708703994751 L 356.1949768066406 -6.152087211608887 C 356.8819580078125 -3.4160871505737305 357.7499694824219 -1.4430872201919556 358.7999572753906 -0.23108725249767303 C 359.8439636230469 0.9729127287864685 361.06695556640625 1.6249127388000488 362.4689636230469 1.7249127626419067 L 362.4689636230469 1.7249127626419067 C 363.93896484375 1.829912781715393 365.2669677734375 1.3329126834869385 366.4559631347656 0.23491275310516357 Z M 345.031982421875 -22.790088653564453 L 344.33197021484375 -12.995086669921875 L 351.9229736328125 -12.453086853027344 C 353.6519775390625 -12.329087257385254 355.16595458984375 -12.659087181091309 356.4649658203125 -13.441086769104004 C 357.76995849609375 -14.217086791992188 358.4819641113281 -15.436086654663086 358.6009826660156 -17.098087310791016 L 358.6009826660156 -17.098087310791016 C 358.7099609375 -18.62708854675293 358.18896484375 -19.83808708190918 357.0359802246094 -20.729087829589844 C 355.88897705078125 -21.613088607788086 354.41796875 -22.11908721923828 352.6229553222656 -22.24808692932129 L 352.6229553222656 -22.24808692932129 L 345.031982421875 -22.790088653564453 Z M 387.5759582519531 9.85791301727295 C 384.1899719238281 9.551913261413574 381.2039794921875 8.517912864685059 378.61895751953125 6.757912635803223 C 376.0339660644531 4.990912914276123 374.0879821777344 2.7199127674102783 372.7789611816406 -0.056087248027324677 C 371.469970703125 -2.832087278366089 370.9649658203125 -5.866087436676025 371.2629699707031 -9.160086631774902 L 371.2629699707031 -9.160086631774902 C 371.56097412109375 -12.453086853027344 372.6039733886719 -15.358086585998535 374.3909606933594 -17.87308692932129 C 376.177978515625 -20.38208770751953 378.5079650878906 -22.273088455200195 381.3809814453125 -23.547088623046875 C 384.2599792480469 -24.813087463378906 387.3759765625 -25.29408836364746 390.7289733886719 -24.990087509155273 L 390.7289733886719 -24.990087509155273 C 394.0489807128906 -24.690088272094727 397.0009765625 -23.659088134765625 399.5859680175781 -21.89908790588379 C 402.17095947265625 -20.13208770751953 404.1169738769531 -17.854087829589844 405.4239807128906 -15.065086364746094 C 406.73095703125 -12.269086837768555 407.2349548339844 -9.22508716583252 406.9369812011719 -5.932087421417236 L 406.9369812011719 -5.932087421417236 C 406.6419677734375 -2.6720871925354004 405.6009826660156 0.21591275930404663 403.81396484375 2.731912851333618 C 402.0269775390625 5.240912914276123 399.7039794921875 7.132912635803223 396.8439636230469 8.406912803649902 C 393.9849548339844 9.67491340637207 390.89495849609375 10.157913208007812 387.5759582519531 9.85791301727295 Z M 388.052978515625 4.578912734985352 C 390.2039794921875 4.7739129066467285 392.16796875 4.415912628173828 393.9439697265625 3.5059127807617188 C 395.7129821777344 2.6019127368927 397.13897705078125 1.2609127759933472 398.2239685058594 -0.5150872468948364 C 399.30096435546875 -2.2850873470306396 399.94195556640625 -4.296087265014648 400.14495849609375 -6.5470871925354 L 400.14495849609375 -6.5470871925354 C 400.3519592285156 -8.831087112426758 400.083984375 -10.940086364746094 399.34197998046875 -12.875086784362793 C 398.5939636230469 -14.817087173461914 397.4379577636719 -16.391088485717773 395.8729553222656 -17.596088409423828 C 394.3089599609375 -18.8090877532959 392.4349670410156 -19.514087677001953 390.2509765625 -19.712087631225586 L 390.2509765625 -19.712087631225586 C 387.9999694824219 -19.916088104248047 385.9899597167969 -19.55508804321289 384.2189636230469 -18.631088256835938 C 382.44195556640625 -17.707088470458984 381.0149841308594 -16.367088317871094 379.9399719238281 -14.610086441040039 C 378.8569641113281 -12.854086875915527 378.2129821777344 -10.834086418151855 378.0059814453125 -8.550086975097656 L 378.0059814453125 -8.550086975097656 C 377.7969665527344 -6.239087104797363 378.0679626464844 -4.130087375640869 378.8189697265625 -2.2210872173309326 C 379.5629577636719 -0.31308725476264954 380.72796630859375 1.2449127435684204 382.3119812011719 2.4529128074645996 C 383.88897705078125 3.666912794113159 385.802978515625 4.374912738800049 388.052978515625 4.578912734985352 Z " opacity="1" transform="matrix(1, 0, 0, 1, 10, 220)" fill="#252928" data-fill-palette-color="primary" id="text-0" data-css-class="undefined-text-0" class="" fill-opacity="1"/>
</svg>