        <svg data-v-b3f6838e="" data-v-3e998a4c="" viewBox="0 0 168 60" fill="none" xmlns="http://www.w3.org/2000/svg"><g data-v-b3f6838e="" clip-path="url(#clip0_529_4444)"><path data-v-b3f6838e="" d="M155.373 11.4078C150.019 11.3596 144.664 11.4078 139.31 11.4078V45.5277H145.735V35.5007H155.377C172.07 35.5007 172.022 11.3974 155.377 11.3974M145.735 17.53H155.377C163.555 17.53 163.603 29.6023 155.377 29.6023H145.735V17.53ZM116.811 45.5174V32.9217H133.897V26.9854H116.822V17.6884H134.882V11.4904H110.396V45.5139L116.811 45.5174ZM105.862 11.3974H97.8869L84.9399 25.825V11.4078H78.5078V45.5277H84.9331V30.415L99.1953 45.5277H107.115V45.1386L90.711 27.922L105.862 11.5937V11.3974Z" fill="#1C6ED3"></path> <path data-v-b3f6838e="" d="M166.247 55.0692C165.959 55.0744 165.672 55.0325 165.397 54.9452C165.173 54.873 164.967 54.7558 164.791 54.6009C164.627 54.4515 164.5 54.2666 164.419 54.0603C164.332 53.8407 164.284 53.6077 164.278 53.3716H165.101C165.109 53.5184 165.149 53.6616 165.218 53.7917C165.28 53.9058 165.364 54.0064 165.466 54.0879C165.569 54.1658 165.686 54.2241 165.81 54.26C165.945 54.2964 166.084 54.3149 166.223 54.3151C166.35 54.317 166.476 54.3019 166.598 54.2704C166.702 54.2474 166.801 54.2078 166.891 54.1533C166.966 54.1058 167.03 54.0423 167.077 53.9673C167.121 53.8922 167.144 53.8065 167.143 53.7194C167.145 53.6344 167.122 53.5505 167.077 53.4784C167.025 53.403 166.953 53.3426 166.871 53.3028C166.751 53.2416 166.625 53.1942 166.495 53.1616C166.34 53.1203 166.151 53.0755 165.92 53.0308C165.692 52.9812 165.469 52.9132 165.252 52.8276C165.083 52.7629 164.926 52.671 164.787 52.5556C164.672 52.4569 164.582 52.3332 164.522 52.194C164.42 51.9501 164.401 51.6792 164.468 51.4233C164.535 51.1674 164.685 50.9409 164.894 50.7788C165.05 50.6566 165.228 50.5643 165.417 50.5068C165.867 50.3712 166.346 50.3712 166.795 50.5068C166.997 50.5712 167.186 50.6741 167.349 50.8098C167.51 50.9449 167.638 51.1143 167.724 51.3056C167.816 51.5117 167.864 51.7344 167.866 51.9599H167.053C167.048 51.8455 167.019 51.7334 166.968 51.6309C166.917 51.5283 166.845 51.4377 166.757 51.3647C166.668 51.2917 166.566 51.238 166.456 51.207C166.345 51.1761 166.23 51.1687 166.116 51.1851C165.898 51.1711 165.679 51.2189 165.486 51.3229C165.419 51.3615 165.364 51.4173 165.326 51.4845C165.288 51.5517 165.268 51.6278 165.269 51.7051C165.268 51.7655 165.283 51.8252 165.314 51.8772C165.355 51.9329 165.408 51.9788 165.469 52.0115C165.553 52.0599 165.644 52.0969 165.738 52.1217C165.868 52.1619 166 52.1953 166.134 52.2216L166.554 52.3145C166.695 52.349 166.833 52.3903 166.97 52.4385C167.104 52.4839 167.233 52.5416 167.356 52.6107C167.475 52.6777 167.583 52.7625 167.676 52.862C167.768 52.9625 167.841 53.0793 167.89 53.2064C167.946 53.3547 167.973 53.5126 167.969 53.6712C167.972 53.8702 167.928 54.0671 167.842 54.2462C167.76 54.4175 167.643 54.5691 167.497 54.6904C167.336 54.822 167.152 54.9214 166.953 54.9831C166.73 55.0537 166.498 55.0886 166.264 55.0864M162.57 51.2574H161.148V55.0176H160.297V51.2402H158.892V50.462H162.556L162.57 51.2574ZM156.255 52.0425C156.245 51.916 156.213 51.7922 156.158 51.6775C156.106 51.5707 156.032 51.4758 155.941 51.3986C155.849 51.3196 155.741 51.2599 155.625 51.223C155.5 51.181 155.37 51.1601 155.239 51.161C155.058 51.158 154.878 51.1932 154.712 51.2643C154.557 51.3324 154.42 51.4362 154.313 51.5673C154.197 51.7161 154.11 51.8855 154.058 52.0666C153.996 52.2908 153.967 52.5228 153.972 52.7553C153.966 52.9881 153.996 53.2204 154.061 53.444C154.113 53.6238 154.198 53.7921 154.313 53.9398C154.418 54.0728 154.554 54.1789 154.709 54.2497C154.871 54.3213 155.047 54.3577 155.225 54.3564C155.361 54.3582 155.496 54.3373 155.625 54.2945C155.741 54.2551 155.849 54.1931 155.941 54.112C156.033 54.0299 156.106 53.9288 156.155 53.8158C156.213 53.6876 156.248 53.55 156.258 53.4095H157.122C157.104 53.6604 157.038 53.9056 156.93 54.1326C156.834 54.337 156.697 54.5188 156.527 54.6663C156.358 54.8181 156.162 54.9351 155.948 55.0107C155.718 55.0856 155.477 55.1228 155.236 55.1209C154.932 55.1252 154.632 55.069 154.351 54.9556C154.097 54.8491 153.869 54.6894 153.683 54.4873C153.491 54.2726 153.345 54.0205 153.256 53.747C153.153 53.435 153.103 53.1079 153.108 52.7794C153.102 52.4505 153.153 52.1231 153.259 51.8118C153.35 51.5389 153.495 51.2871 153.686 51.0715C153.878 50.8651 154.113 50.7039 154.375 50.5998C154.653 50.4863 154.952 50.4301 155.253 50.4345C155.487 50.4328 155.72 50.4724 155.941 50.5516C156.154 50.6301 156.35 50.7468 156.52 50.8959C156.69 51.04 156.832 51.2153 156.937 51.4124C157.048 51.6263 157.116 51.8605 157.136 52.1011L156.255 52.0425ZM149.158 55.0864C148.912 55.091 148.667 55.0632 148.428 55.0038C148.249 54.9555 148.079 54.8776 147.925 54.7731C147.797 54.6812 147.689 54.564 147.609 54.4287C147.53 54.2973 147.47 54.156 147.429 54.0087C147.391 53.8574 147.367 53.703 147.357 53.5473C147.357 53.3889 147.357 53.2339 147.357 53.079V50.4792H148.204V53.0721C148.2 53.2827 148.22 53.4931 148.266 53.6988C148.287 53.8279 148.335 53.9512 148.407 54.0603C148.49 54.1497 148.596 54.2131 148.714 54.2428C148.849 54.279 148.988 54.2964 149.127 54.2945C149.269 54.2964 149.41 54.279 149.547 54.2428C149.664 54.2105 149.769 54.1461 149.85 54.0569C149.939 53.9463 150.002 53.8167 150.033 53.6781C150.079 53.4725 150.099 53.262 150.095 53.0514V50.4586H150.949V53.0583C150.952 53.3428 150.924 53.6268 150.866 53.9054C150.819 54.1349 150.72 54.3506 150.577 54.5355C150.43 54.7154 150.237 54.8522 150.019 54.9315C149.737 55.029 149.439 55.0757 149.141 55.0692L149.158 55.0864ZM144.337 52.7243C144.34 52.517 144.318 52.31 144.272 52.1079C144.231 51.9373 144.149 51.779 144.034 51.6465C143.913 51.5139 143.758 51.4154 143.587 51.3607C143.358 51.2852 143.118 51.2503 142.877 51.2574H142.209V54.2359H142.85C143.089 54.2427 143.328 54.2077 143.556 54.1326C143.728 54.0742 143.882 53.9722 144.003 53.8365C144.12 53.6998 144.202 53.5367 144.241 53.3613C144.293 53.1472 144.317 52.9274 144.313 52.7071L144.337 52.7243ZM145.202 52.7243C145.202 54.2531 144.429 55.0176 142.884 55.0176H141.39V50.462H142.884C144.415 50.462 145.18 51.2104 145.178 52.7071L145.202 52.7243ZM137.044 54.3186C137.228 54.32 137.41 54.2824 137.578 54.2084C137.739 54.1358 137.883 54.0289 137.998 53.895C138.119 53.7476 138.21 53.578 138.267 53.3957C138.4 52.9592 138.4 52.4929 138.267 52.0563C138.209 51.8752 138.116 51.7069 137.995 51.5605C137.881 51.4277 137.739 51.3229 137.578 51.254C137.413 51.1814 137.235 51.145 137.055 51.1473C136.872 51.145 136.692 51.1814 136.524 51.254C136.363 51.3253 136.22 51.4311 136.104 51.5639C135.981 51.711 135.888 51.8805 135.829 52.0632C135.76 52.2779 135.726 52.5023 135.729 52.7277C135.726 52.9543 135.76 53.1799 135.829 53.3957C135.886 53.5782 135.979 53.7477 136.101 53.895C136.215 54.0288 136.357 54.1358 136.518 54.2084C136.683 54.2824 136.863 54.32 137.044 54.3186ZM137.044 50.3897C137.344 50.3857 137.642 50.4432 137.919 50.5584C138.179 50.665 138.414 50.8258 138.608 51.0302C138.806 51.2441 138.96 51.4959 139.059 51.7705C139.172 52.0767 139.228 52.4012 139.224 52.7277C139.228 53.0517 139.173 53.3736 139.062 53.6781C138.964 53.9529 138.81 54.2048 138.611 54.4184C138.417 54.6246 138.183 54.7887 137.922 54.9005C137.356 55.1255 136.726 55.1255 136.159 54.9005C135.899 54.7915 135.664 54.6283 135.471 54.4219C135.273 54.2078 135.121 53.9559 135.023 53.6815C134.913 53.3758 134.858 53.0528 134.861 52.7277C134.858 52.4004 134.913 52.0751 135.023 51.7671C135.124 51.4927 135.28 51.2419 135.481 51.0302C135.674 50.824 135.909 50.662 136.17 50.555C136.448 50.4428 136.745 50.3866 137.044 50.3897ZM129.937 52.3972H131.067C131.197 52.3996 131.328 52.388 131.456 52.3628C131.551 52.3478 131.641 52.3125 131.721 52.2594C131.789 52.2145 131.842 52.1495 131.873 52.0735C131.906 51.9821 131.923 51.8852 131.921 51.7877C131.927 51.7039 131.914 51.6197 131.881 51.5423C131.848 51.4649 131.796 51.3967 131.731 51.3435C131.558 51.2368 131.356 51.1874 131.153 51.2023H129.937V52.3972ZM132.995 55.0003H132.083L131.649 53.7642C131.619 53.6797 131.576 53.6005 131.521 53.53C131.472 53.4592 131.411 53.3964 131.342 53.3441C131.273 53.2921 131.196 53.2504 131.115 53.2201C131.029 53.1894 130.938 53.1742 130.846 53.1754H129.937V55.0003H129.09V50.462H131.122H131.466C131.571 50.4672 131.676 50.4799 131.78 50.4999C131.88 50.5215 131.978 50.5526 132.072 50.5929C132.167 50.6363 132.255 50.6931 132.334 50.7616C132.407 50.825 132.473 50.8966 132.53 50.9751C132.584 51.0543 132.63 51.1384 132.668 51.2265C132.705 51.3143 132.734 51.4054 132.754 51.4985C132.772 51.5916 132.781 51.6861 132.782 51.7808C132.789 52.0336 132.718 52.2825 132.578 52.4936C132.442 52.6959 132.251 52.8549 132.027 52.9516C132.245 53.1332 132.409 53.3715 132.499 53.6402L132.995 55.0003ZM124.304 52.5143H125.251C125.384 52.5166 125.517 52.5027 125.647 52.4729C125.744 52.4488 125.835 52.4055 125.916 52.3455C125.983 52.2908 126.035 52.2197 126.067 52.1389C126.099 52.0472 126.114 51.9503 126.112 51.8531C126.116 51.7445 126.092 51.6367 126.043 51.5398C125.996 51.4622 125.929 51.3982 125.85 51.3539C125.762 51.3067 125.667 51.2763 125.568 51.2643C125.454 51.2487 125.339 51.2406 125.223 51.2402H124.304V52.5143ZM123.457 50.4483H125.196C125.348 50.4475 125.5 50.4556 125.65 50.4724C125.794 50.4889 125.936 50.5188 126.074 50.5619C126.202 50.6021 126.324 50.6576 126.439 50.7272C126.549 50.794 126.646 50.8803 126.725 50.982C126.807 51.091 126.87 51.2133 126.911 51.3435C126.957 51.5011 126.979 51.6648 126.976 51.829C126.991 52.0313 126.96 52.2343 126.884 52.4223C126.808 52.6104 126.69 52.7785 126.539 52.9137C126.16 53.184 125.698 53.3131 125.234 53.2787H124.304V55.0003H123.457V50.4483ZM118.134 52.6933C118.136 52.4858 118.112 52.2789 118.065 52.077C118.025 51.9066 117.945 51.7483 117.831 51.6155C117.708 51.4837 117.554 51.3854 117.383 51.3298C117.154 51.2543 116.914 51.2193 116.674 51.2265H116.04V54.2049H116.681C116.92 54.2117 117.159 54.1767 117.386 54.1016C117.558 54.0424 117.712 53.9405 117.834 53.8055C117.951 53.6688 118.032 53.5057 118.072 53.3303C118.121 53.1261 118.146 52.917 118.147 52.7071L118.134 52.6933ZM118.998 52.6933C118.998 54.2221 118.225 54.9866 116.681 54.9866H115.186V50.462H116.681C118.237 50.462 119.014 51.2104 119.012 52.7071L118.998 52.6933ZM110.875 54.3186C111.059 54.32 111.241 54.2824 111.409 54.2084C111.569 54.1358 111.711 54.0288 111.825 53.895C111.949 53.7486 112.041 53.5788 112.097 53.3957C112.226 52.9585 112.226 52.4935 112.097 52.0563C112.039 51.8752 111.947 51.7069 111.825 51.5605C111.71 51.4293 111.568 51.3247 111.409 51.254C111.244 51.1814 111.066 51.145 110.885 51.1473C110.703 51.145 110.522 51.1814 110.355 51.254C110.194 51.3253 110.051 51.4311 109.935 51.5639C109.811 51.7101 109.717 51.8799 109.66 52.0632C109.591 52.2779 109.557 52.5023 109.56 52.7277C109.557 52.9543 109.591 53.1799 109.66 53.3957C109.717 53.5782 109.81 53.7477 109.932 53.895C110.045 54.0279 110.186 54.1348 110.345 54.2084C110.512 54.2825 110.693 54.32 110.875 54.3186ZM110.875 50.3897C111.175 50.3861 111.473 50.4435 111.75 50.5584C112.01 50.6658 112.244 50.8265 112.438 51.0302C112.637 51.2441 112.79 51.4959 112.889 51.7705C113.002 52.0769 113.057 52.4014 113.051 52.7277C113.056 53.0515 113.002 53.3734 112.893 53.6781C112.793 53.9523 112.64 54.2039 112.442 54.4184C112.248 54.6246 112.013 54.7887 111.753 54.9005C111.187 55.1255 110.556 55.1255 109.99 54.9005C109.729 54.7915 109.495 54.6283 109.301 54.4219C109.103 54.2086 108.95 53.9566 108.854 53.6815C108.743 53.3758 108.688 53.0528 108.692 52.7277C108.688 52.4004 108.743 52.0751 108.854 51.7671C108.955 51.4935 109.109 51.243 109.308 51.0302C109.502 50.8251 109.737 50.6632 109.997 50.555C110.276 50.4424 110.574 50.3862 110.875 50.3897ZM104.557 54.3186C104.74 54.3197 104.922 54.2822 105.09 54.2084C105.251 54.1358 105.393 54.0288 105.507 53.895C105.629 53.7477 105.721 53.5782 105.779 53.3957C105.907 52.9585 105.907 52.4935 105.779 52.0563C105.72 51.8749 105.626 51.7066 105.504 51.5605C105.39 51.4277 105.247 51.3229 105.087 51.254C104.923 51.1814 104.746 51.145 104.567 51.1473C104.385 51.1447 104.204 51.1811 104.037 51.254C103.875 51.3261 103.731 51.4317 103.613 51.5639C103.49 51.711 103.396 51.8805 103.338 52.0632C103.27 52.2781 103.237 52.5025 103.241 52.7277C103.237 52.9541 103.27 53.1797 103.338 53.3957C103.396 53.5784 103.49 53.7479 103.613 53.895C103.726 54.0286 103.867 54.1356 104.026 54.2084C104.193 54.2825 104.374 54.32 104.557 54.3186ZM104.557 50.3897C104.858 50.3861 105.156 50.4435 105.435 50.5584C105.695 50.6654 105.93 50.8262 106.123 51.0302C106.322 51.2448 106.476 51.4964 106.578 51.7705C106.689 52.0773 106.743 52.4015 106.74 52.7277C106.745 53.0518 106.69 53.374 106.578 53.6781C106.481 53.9528 106.328 54.2047 106.13 54.4184C105.936 54.6246 105.702 54.7887 105.442 54.9005C105.162 55.0164 104.862 55.0738 104.56 55.0692C104.258 55.0731 103.958 55.0158 103.679 54.9005C103.418 54.791 103.183 54.6279 102.99 54.4219C102.791 54.208 102.638 53.9561 102.539 53.6815C102.429 53.3756 102.376 53.0526 102.38 52.7277C102.375 52.4003 102.43 52.0747 102.542 51.7671C102.642 51.4929 102.796 51.2421 102.997 51.0302C103.189 50.8236 103.424 50.6615 103.685 50.555C103.962 50.4428 104.258 50.3866 104.557 50.3897ZM100.466 51.2402H98.1348V52.2732H100.153V53.0514H98.1348V54.9866H97.2912V50.462H100.456L100.466 51.2402ZM93.0146 55.0003H89.3612V54.2841L91.8576 51.2402H89.6022V50.462H92.9388V51.1782L90.4389 54.2187H93.0146V55.0003ZM87.9735 55.0003H87.0301L86.5342 53.716H84.9468L84.4751 55.0141H83.5764L85.3187 50.4758H86.1279L87.9735 55.0003ZM86.2519 52.9825L85.7388 51.5432L85.2189 52.9825H86.2519ZM82.3988 55.0003H81.3313L79.8645 52.9343L79.3583 53.4336V54.9935H78.5078V50.462H79.3514V52.3731L81.2384 50.462H82.3953L80.4567 52.3559L82.3988 55.0003Z" fill="#00BA2D"></path> <path data-v-b3f6838e="" fill-rule="evenodd" clip-rule="evenodd" d="M19.2484 22.1096C18.775 22.0817 18.318 21.9258 17.9262 21.6585C17.6473 21.9478 17.3718 22.237 17.0998 22.5297C14.757 25.0514 12.6982 27.8226 10.9603 30.7937C11.2264 31.0204 11.4448 31.2978 11.6026 31.6097C11.7604 31.9217 11.8546 32.2619 11.8796 32.6106C11.9046 32.9593 11.8599 33.3095 11.7482 33.6407C11.6365 33.972 11.46 34.2777 11.2289 34.54C14.0754 38.0703 17.6248 40.9701 21.6518 43.0554C24.4348 44.4863 27.413 45.5003 30.4909 46.0649C30.5618 45.7871 30.6781 45.523 30.8352 45.2832C27.9673 42.2755 25.5471 38.8707 23.649 35.1736C21.5321 31.0589 20.0508 26.6473 19.2553 22.089M9.187 11.363C12.1681 8.65764 15.699 6.62905 19.5376 5.41636C19.4171 5.97418 19.3035 6.532 19.1933 7.09671C18.5613 7.13507 17.9642 7.39982 17.5115 7.84247C17.0587 8.28511 16.7805 8.87604 16.7279 9.50704C14.286 9.89478 11.8777 10.4704 9.52445 11.2287L9.187 11.363ZM3.63291 18.2841C4.69414 16.4235 5.96497 14.6905 7.42057 13.1191C8.24008 12.8126 9.05615 12.5268 9.86878 12.2686C12.1565 11.5279 14.4981 10.9649 16.8725 10.5848C17.01 10.9824 17.2405 11.3413 17.5447 11.6318C17.849 11.9223 18.2182 12.1359 18.6217 12.2548C18.546 13.8208 18.5529 15.3897 18.6424 16.955C18.2527 17.0725 17.8955 17.2787 17.5989 17.5574C17.3023 17.8362 17.0743 18.1799 16.9329 18.5615C16.7914 18.9432 16.7403 19.3524 16.7836 19.7571C16.8269 20.1618 16.9634 20.551 17.1824 20.8941C16.8897 21.1937 16.6005 21.4967 16.3147 21.8066C13.9115 24.3988 11.8006 27.2475 10.0203 30.3013C9.77172 30.2237 9.51282 30.1842 9.25242 30.1842C8.92727 30.1844 8.605 30.2451 8.30206 30.3633C7.95084 29.7756 7.61569 29.1753 7.29661 28.5624C5.61517 25.3182 4.38265 21.8604 3.63291 18.2841ZM4.2596 46.8947C1.73711 42.8583 0.286672 38.2449 0.0456459 33.4912C-0.195381 28.7376 0.780978 24.0011 2.88226 19.7303C3.65519 22.965 4.81838 26.0938 6.34625 29.0479C6.6837 29.693 7.03607 30.322 7.40336 30.9349C7.13316 31.2 6.92327 31.5202 6.78798 31.8737C6.65269 32.2272 6.59518 32.6057 6.61936 32.9835C6.64354 33.3612 6.74885 33.7293 6.92811 34.0627C7.10737 34.3961 7.35637 34.6869 7.65816 34.9154C5.96021 38.7261 4.81578 42.76 4.2596 46.8947ZM9.61053 53.1512C7.94237 51.7037 6.45034 50.0649 5.16519 48.2686C5.62614 43.8155 6.78826 39.4634 8.60852 35.3733C8.81489 35.4231 9.02637 35.4485 9.23865 35.4491C9.62684 35.4496 10.0103 35.3637 10.3612 35.1977C13.3048 38.8572 16.9789 41.8629 21.1491 44.023C24.0745 45.5261 27.2081 46.5834 30.4461 47.1598C30.5203 47.6017 30.706 48.0172 30.9856 48.3673C31.2651 48.7174 31.6294 48.9903 32.0438 49.1604C29.4808 50.4284 26.7963 51.4343 24.0312 52.163C23.6662 52.256 23.2978 52.3455 22.9293 52.4316C21.3148 52.805 19.6765 53.0673 18.026 53.2167C16.6074 53.3441 15.1267 53.3578 13.7012 53.3475C12.3686 53.3337 10.95 53.2993 9.61053 53.1512ZM44.4191 54.625C40.3903 57.5679 35.6472 59.3789 30.6821 59.8699C25.7171 60.361 20.7111 59.5142 16.1838 57.4175C21.032 57.6069 26.1454 56.4534 30.3015 54.8212C31.1899 54.4723 32.0656 54.0981 32.9287 53.6987C34.5958 52.9283 36.219 52.0661 37.7907 51.1162C39.8853 52.4911 42.1045 53.6659 44.4191 54.625ZM53.2375 43.9507C51.4171 47.8164 48.7378 51.2154 45.4039 53.8881C43.1066 52.9748 40.902 51.8437 38.8203 50.5102C40.4959 49.4468 42.1057 48.2832 43.6409 47.0256C46.9458 46.3716 50.163 45.3338 53.2272 43.9334L53.2375 43.9507ZM47.8452 36.2101C45.3287 32.7762 42.2646 29.7795 38.7755 27.34C38.8761 26.8175 38.8161 26.2768 38.6033 25.7891C38.3906 25.3013 38.0352 24.8895 37.5838 24.6077C37.1324 24.3259 36.6063 24.1874 36.0747 24.2105C35.5431 24.2336 35.0309 24.4171 34.6056 24.7369C30.6205 22.5691 26.4047 20.8551 22.0375 19.627C22.0375 19.5753 22.0375 19.5202 22.0375 19.4686C22.0372 19.0144 21.9185 18.5682 21.6932 18.1739C24.4746 15.8776 27.5109 13.9088 30.7422 12.3065C31.0058 12.6616 31.3546 12.9446 31.7564 13.1294C32.1582 13.3142 32.6 13.3949 33.0411 13.364C33.4823 13.3331 33.9086 13.1917 34.2807 12.9527C34.6528 12.7137 34.9588 12.3849 35.1704 11.9966C35.8728 12.2261 36.5615 12.489 37.2364 12.7851C43.8128 15.5382 49.3011 20.378 52.8553 26.5584C52.6257 27.2608 52.3778 27.9495 52.1115 28.6244C51.0201 31.3219 49.5825 33.866 47.8349 36.1928L47.8452 36.2101ZM36.5442 46.6433C36.2584 46.6433 35.9727 46.6433 35.6903 46.6433C35.669 46.1764 35.5238 45.7235 35.2696 45.3312C35.0155 44.9389 34.6615 44.6213 34.244 44.411C33.8266 44.2006 33.3606 44.1052 32.8941 44.1344C32.4276 44.1637 31.9772 44.3166 31.5893 44.5773C28.8018 41.6493 26.449 38.3363 24.6028 34.7398C22.5364 30.719 21.091 26.4084 20.3158 21.9547C20.9405 21.7195 21.4534 21.2571 21.7517 20.66C25.9623 21.8464 30.0302 23.4906 33.8825 25.5633C33.5291 26.1564 33.4224 26.8645 33.5852 27.5355C33.7481 28.2065 34.1675 28.7869 34.7536 29.152C35.3396 29.5172 36.0454 29.6379 36.7195 29.4884C37.3936 29.3389 37.9822 28.931 38.3589 28.3524C41.7593 30.7535 44.7381 33.702 47.1738 37.0778C45.918 38.6692 44.5461 40.1654 43.0694 41.5541C41.0512 43.4419 38.8635 45.1397 36.5339 46.6261L36.5442 46.6433ZM55.851 33.3073C55.7167 36.4509 55.0507 39.549 53.8814 42.47C51.1504 43.7971 48.2884 44.8357 45.3419 45.569C45.6105 45.3395 45.8757 45.095 46.1374 44.8356C50.0122 41.2465 53.1777 36.9609 55.4688 32.202C55.595 32.5418 55.719 32.9045 55.8407 33.2901L55.851 33.3073ZM42.5976 8.2881C47.7564 11.4722 51.7435 16.2434 53.9606 21.8858C53.7991 22.9928 53.5691 24.0887 53.2719 25.1673C49.5949 19.1864 44.1329 14.5109 37.6564 11.8003C36.9471 11.5007 36.2206 11.2253 35.4837 10.9705C35.4837 10.8947 35.4837 10.8155 35.4837 10.7363C35.4835 10.5829 35.4708 10.4297 35.4458 10.2783C37.7727 9.42473 40.1643 8.75918 42.5976 8.2881ZM27.9325 4.132C32.5674 4.1237 37.1307 5.27548 41.2065 7.48236C39.1177 7.9467 37.063 8.55299 35.0567 9.297C34.799 8.90258 34.4403 8.5845 34.0178 8.37591C33.5954 8.16731 33.1247 8.07582 32.6549 8.11099C32.1851 8.14615 31.7333 8.30668 31.3466 8.57585C30.96 8.84501 30.6525 9.21295 30.4564 9.64133C27.6383 9.11839 24.7707 8.91051 21.9067 9.02153C21.7941 8.61692 21.5867 8.24499 21.3017 7.93658C21.0166 7.62817 20.6621 7.39219 20.2676 7.24821C20.3985 6.51823 20.5465 5.79513 20.7187 5.07547C23.0717 4.44691 25.497 4.12971 27.9325 4.132ZM19.7167 16.8723C20.1838 16.9218 20.6288 17.0967 21.0045 17.3785C23.8604 15.0128 26.9801 12.985 30.3015 11.3354C30.2559 11.139 30.2328 10.938 30.2326 10.7363V10.6915C27.5108 10.1875 24.7417 9.98542 21.9755 10.089C21.896 10.6627 21.6296 11.1943 21.2176 11.6014C20.8055 12.0085 20.2707 12.2684 19.696 12.3409C19.6199 13.8506 19.6268 15.3634 19.7167 16.8723Z" fill="#1C6ED3"></path> <path data-v-b3f6838e="" d="M56.2881 12.1859C56.35 12.4304 56.412 12.6749 56.4671 12.9228C57.1172 15.7315 57.3102 18.6266 57.0387 21.4967C58.416 19.8026 60.451 18.4769 63.1885 17.3957C63.3779 24.7919 59.9139 26.4103 55.6752 27.9426C53.7331 33.841 49.9937 39.3056 45.1902 43.8129C41.406 47.3625 37.0767 50.2817 32.3673 52.4591C31.5248 52.847 30.6731 53.2109 29.8123 53.5506C23.6143 55.9816 15.2195 57.3107 9.15234 54.4734C12.1434 54.7577 15.153 54.7923 18.1498 54.5767C19.8625 54.4209 21.5628 54.1494 23.239 53.7641C23.6212 53.6746 24 53.5816 24.3787 53.4852C31.724 51.5116 38.4667 47.7511 44.0057 42.5389C48.1136 38.6582 51.4089 34.0889 53.3716 29.1305C55.4135 24.0034 56.4189 17.9294 54.5802 12.6267C48.7403 13.429 47.0599 3.19883 43.0416 -1.87596e-05C53.1719 -0.344352 58.2886 7.88176 56.295 12.1756" fill="#00BA2D"></path></g> <defs data-v-b3f6838e=""><clipPath data-v-b3f6838e="" id="clip0_529_4444"><rect data-v-b3f6838e="" width="167.969" height="60" fill="white"></rect></clipPath></defs></svg>